<?xml version="1.0" standalone="no"?>
<!DOCTYPE svg PUBLIC "-//W3C//DTD SVG 20010904//EN"
 "http://www.w3.org/TR/2001/REC-SVG-20010904/DTD/svg10.dtd">
<svg version="1.0" xmlns="http://www.w3.org/2000/svg"
 width="1016.000000pt" height="1016.000000pt" viewBox="0 0 1016.000000 1016.000000"
 preserveAspectRatio="xMidYMid meet">
<metadata>
Created by potrace 1.14, written by Peter Selinger 2001-2017
</metadata>
<g transform="translate(0.000000,1016.000000) scale(0.100000,-0.100000)"
fill="#000000" stroke="none">
<path d="M0 5080 l0 -3390 5080 0 5080 0 0 3390 0 3390 -5080 0 -5080 0 0
-3390z m6120 903 l0 327 180 0 180 0 0 -508 0 -507 505 -505 505 -505 -152
-152 -153 -153 -1047 1047 -1048 1048 -1050 -1050 -1050 -1050 -155 155 -155
155 1202 1202 1203 1203 517 -517 518 -518 0 328z m-660 -1873 l0 -640 -370 0
-370 0 0 640 0 640 370 0 370 0 0 -640z"/>
</g>
</svg>
