<svg width="55" height="44" viewBox="0 0 55 44" fill="none" xmlns="http://www.w3.org/2000/svg">
<path d="M16.86 43.36C13.62 43.36 10.72 42.5 8.16 40.78C5.64 39.06 3.66 36.6 2.22 33.4C0.82 30.16 0.12 26.36 0.12 22C0.12 17.64 0.82 13.86 2.22 10.66C3.66 7.42 5.64 4.94 8.16 3.22C10.72 1.5 13.62 0.639998 16.86 0.639998C20.1 0.639998 22.98 1.5 25.5 3.22C28.06 4.94 30.06 7.42 31.5 10.66C32.94 13.86 33.66 17.64 33.66 22C33.66 26.36 32.94 30.16 31.5 33.4C30.06 36.6 28.06 39.06 25.5 40.78C22.98 42.5 20.1 43.36 16.86 43.36ZM16.86 39.4C19.3 39.4 21.44 38.72 23.28 37.36C25.16 36 26.62 34.02 27.66 31.42C28.7 28.82 29.22 25.68 29.22 22C29.22 18.32 28.7 15.18 27.66 12.58C26.62 9.98 25.16 8 23.28 6.64C21.44 5.28 19.3 4.6 16.86 4.6C14.42 4.6 12.26 5.28 10.38 6.64C8.54 8 7.1 9.98 6.06 12.58C5.02 15.18 4.5 18.32 4.5 22C4.5 25.68 5.02 28.82 6.06 31.42C7.1 34.02 8.54 36 10.38 37.36C12.26 38.72 14.42 39.4 16.86 39.4ZM54.3694 0.999997V43H50.0494V4.84H40.1494V0.999997H54.3694Z" fill="#FF7A00" fill-opacity="0.5"/>
</svg>
