<svg width="72" height="44" viewBox="0 0 72 44" fill="none" xmlns="http://www.w3.org/2000/svg">
<path d="M16.86 43.36C13.62 43.36 10.72 42.5 8.16 40.78C5.64 39.06 3.66 36.6 2.22 33.4C0.82 30.16 0.12 26.36 0.12 22C0.12 17.64 0.82 13.86 2.22 10.66C3.66 7.42 5.64 4.94 8.16 3.22C10.72 1.5 13.62 0.639998 16.86 0.639998C20.1 0.639998 22.98 1.5 25.5 3.22C28.06 4.94 30.06 7.42 31.5 10.66C32.94 13.86 33.66 17.64 33.66 22C33.66 26.36 32.94 30.16 31.5 33.4C30.06 36.6 28.06 39.06 25.5 40.78C22.98 42.5 20.1 43.36 16.86 43.36ZM16.86 39.4C19.3 39.4 21.44 38.72 23.28 37.36C25.16 36 26.62 34.02 27.66 31.42C28.7 28.82 29.22 25.68 29.22 22C29.22 18.32 28.7 15.18 27.66 12.58C26.62 9.98 25.16 8 23.28 6.64C21.44 5.28 19.3 4.6 16.86 4.6C14.42 4.6 12.26 5.28 10.38 6.64C8.54 8 7.1 9.98 6.06 12.58C5.02 15.18 4.5 18.32 4.5 22C4.5 25.68 5.02 28.82 6.06 31.42C7.1 34.02 8.54 36 10.38 37.36C12.26 38.72 14.42 39.4 16.86 39.4ZM71.4094 39.16V43H41.9494V39.94L59.4094 22.84C61.6094 20.68 63.0894 18.82 63.8494 17.26C64.6494 15.66 65.0494 14.06 65.0494 12.46C65.0494 9.98 64.1894 8.06 62.4694 6.7C60.7894 5.3 58.3694 4.6 55.2094 4.6C50.2894 4.6 46.4694 6.16 43.7494 9.28L40.6894 6.64C42.3294 4.72 44.4094 3.24 46.9294 2.2C49.4894 1.16 52.3694 0.639998 55.5694 0.639998C59.8494 0.639998 63.2294 1.66 65.7094 3.7C68.2294 5.7 69.4894 8.46 69.4894 11.98C69.4894 14.14 69.0094 16.22 68.0494 18.22C67.0894 20.22 65.2694 22.52 62.5894 25.12L48.3094 39.16H71.4094Z" fill="#FF7A00" fill-opacity="0.5"/>
</svg>
