<svg width="71" height="44" viewBox="0 0 71 44" fill="none" xmlns="http://www.w3.org/2000/svg">
<path d="M16.86 43.36C13.62 43.36 10.72 42.5 8.16 40.78C5.64 39.06 3.66 36.6 2.22 33.4C0.82 30.16 0.12 26.36 0.12 22C0.12 17.64 0.82 13.86 2.22 10.66C3.66 7.42 5.64 4.94 8.16 3.22C10.72 1.5 13.62 0.639998 16.86 0.639998C20.1 0.639998 22.98 1.5 25.5 3.22C28.06 4.94 30.06 7.42 31.5 10.66C32.94 13.86 33.66 17.64 33.66 22C33.66 26.36 32.94 30.16 31.5 33.4C30.06 36.6 28.06 39.06 25.5 40.78C22.98 42.5 20.1 43.36 16.86 43.36ZM16.86 39.4C19.3 39.4 21.44 38.72 23.28 37.36C25.16 36 26.62 34.02 27.66 31.42C28.7 28.82 29.22 25.68 29.22 22C29.22 18.32 28.7 15.18 27.66 12.58C26.62 9.98 25.16 8 23.28 6.64C21.44 5.28 19.3 4.6 16.86 4.6C14.42 4.6 12.26 5.28 10.38 6.64C8.54 8 7.1 9.98 6.06 12.58C5.02 15.18 4.5 18.32 4.5 22C4.5 25.68 5.02 28.82 6.06 31.42C7.1 34.02 8.54 36 10.38 37.36C12.26 38.72 14.42 39.4 16.86 39.4ZM56.5406 19C60.9406 19.24 64.2806 20.44 66.5606 22.6C68.8806 24.72 70.0406 27.5 70.0406 30.94C70.0406 33.34 69.4606 35.48 68.3006 37.36C67.1406 39.2 65.4206 40.66 63.1406 41.74C60.8606 42.82 58.0806 43.36 54.8006 43.36C51.7606 43.36 48.8806 42.88 46.1606 41.92C43.4806 40.92 41.3206 39.6 39.6806 37.96L41.7806 34.54C43.1806 35.98 45.0406 37.16 47.3606 38.08C49.6806 38.96 52.1606 39.4 54.8006 39.4C58.2406 39.4 60.9006 38.66 62.7806 37.18C64.6606 35.66 65.6006 33.58 65.6006 30.94C65.6006 28.34 64.6606 26.3 62.7806 24.82C60.9006 23.34 58.0606 22.6 54.2606 22.6H51.2606V19.42L62.9006 4.84H41.4206V0.999997H68.4206V4.06L56.5406 19Z" fill="#FF7A00" fill-opacity="0.5"/>
</svg>
