<svg width="72" height="44" viewBox="0 0 72 44" fill="none" xmlns="http://www.w3.org/2000/svg">
<path d="M16.86 43.36C13.62 43.36 10.72 42.5 8.16 40.78C5.64 39.06 3.66 36.6 2.22 33.4C0.82 30.16 0.12 26.36 0.12 22C0.12 17.64 0.82 13.86 2.22 10.66C3.66 7.42 5.64 4.94 8.16 3.22C10.72 1.5 13.62 0.639998 16.86 0.639998C20.1 0.639998 22.98 1.5 25.5 3.22C28.06 4.94 30.06 7.42 31.5 10.66C32.94 13.86 33.66 17.64 33.66 22C33.66 26.36 32.94 30.16 31.5 33.4C30.06 36.6 28.06 39.06 25.5 40.78C22.98 42.5 20.1 43.36 16.86 43.36ZM16.86 39.4C19.3 39.4 21.44 38.72 23.28 37.36C25.16 36 26.62 34.02 27.66 31.42C28.7 28.82 29.22 25.68 29.22 22C29.22 18.32 28.7 15.18 27.66 12.58C26.62 9.98 25.16 8 23.28 6.64C21.44 5.28 19.3 4.6 16.86 4.6C14.42 4.6 12.26 5.28 10.38 6.64C8.54 8 7.1 9.98 6.06 12.58C5.02 15.18 4.5 18.32 4.5 22C4.5 25.68 5.02 28.82 6.06 31.42C7.1 34.02 8.54 36 10.38 37.36C12.26 38.72 14.42 39.4 16.86 39.4ZM53.8866 18.22C59.9666 18.22 64.3866 19.32 67.1466 21.52C69.9466 23.68 71.3466 26.72 71.3466 30.64C71.3466 33.08 70.7666 35.26 69.6066 37.18C68.4866 39.1 66.7866 40.62 64.5066 41.74C62.2266 42.82 59.4266 43.36 56.1066 43.36C53.1066 43.36 50.2466 42.88 47.5266 41.92C44.8466 40.92 42.6866 39.6 41.0466 37.96L43.1466 34.54C44.5466 35.98 46.3866 37.16 48.6666 38.08C50.9466 38.96 53.4066 39.4 56.0466 39.4C59.5266 39.4 62.2066 38.62 64.0866 37.06C66.0066 35.5 66.9666 33.42 66.9666 30.82C66.9666 27.94 65.8866 25.76 63.7266 24.28C61.6066 22.8 58.0066 22.06 52.9266 22.06H43.9866L46.1466 0.999997H69.1266V4.84H49.9266L48.4866 18.22H53.8866Z" fill="#FF7A00" fill-opacity="0.5"/>
</svg>
