<svg width="22" height="24" viewBox="0 0 22 24" fill="none" xmlns="http://www.w3.org/2000/svg">
<path d="M21.6452 0.527344H0.354839C0.26073 0.527344 0.170475 0.566428 0.10393 0.635998C0.0373847 0.705568 0 0.799925 0 0.898311V10.9608C0.000266754 11.1113 0.029594 11.2601 0.0862234 11.3985C0.142853 11.5368 0.225618 11.6617 0.329556 11.7658C0.526743 11.9642 0.789986 12.0746 1.06363 12.0737C1.08048 12.0737 1.09778 12.0733 1.11508 12.0723C1.39109 12.0565 1.65062 11.9299 1.83953 11.719C2.02844 11.508 2.13215 11.2289 2.12903 10.9399V3.86605C2.12903 3.76767 2.16642 3.67331 2.23296 3.60374C2.29951 3.53417 2.38976 3.49509 2.48387 3.49509C2.57798 3.49509 2.66823 3.53417 2.73478 3.60374C2.80132 3.67331 2.83871 3.76767 2.83871 3.86605V6.8338C2.83898 6.98426 2.8683 7.13312 2.92493 7.27144C2.98156 7.40977 3.06433 7.53472 3.16827 7.6388C3.27206 7.74353 3.39537 7.8248 3.53051 7.87753C3.66566 7.93027 3.80974 7.95334 3.95379 7.94531C4.2298 7.92952 4.48933 7.80293 4.67824 7.59196C4.86715 7.38098 4.97086 7.1019 4.96774 6.81293V3.86605C4.96787 3.76771 5.0053 3.67343 5.07181 3.60389C5.13833 3.53435 5.22851 3.49522 5.32258 3.49509H5.67742C5.77149 3.49522 5.86167 3.53435 5.92819 3.60389C5.9947 3.67343 6.03213 3.76771 6.03226 3.86605V4.97896C5.93815 4.97896 5.84789 5.01804 5.78135 5.08761C5.7148 5.15718 5.67742 5.25154 5.67742 5.34992V13.6369C5.46522 13.7423 5.28593 13.9084 5.16033 14.1159C5.03472 14.3235 4.96795 14.564 4.96774 14.8096V16.108C4.96774 16.2064 5.00513 16.3007 5.07167 16.3703C5.13822 16.4399 5.22847 16.479 5.32258 16.479H7.80645V17.2209C7.80645 17.3193 7.84384 17.4136 7.91038 17.4832C7.97693 17.5528 8.06718 17.5919 8.16129 17.5919H9.58064V22.229C9.58101 22.5732 9.71197 22.9032 9.9448 23.1466C10.1776 23.39 10.4933 23.527 10.8226 23.5273H11.1774C11.5067 23.527 11.8224 23.39 12.0552 23.1466C12.288 22.9032 12.419 22.5732 12.4194 22.229V17.5919H13.8387C13.9328 17.5919 14.0231 17.5528 14.0896 17.4832C14.1562 17.4136 14.1935 17.3193 14.1935 17.2209V16.479H16.6774C16.7715 16.479 16.8618 16.4399 16.9283 16.3703C16.9949 16.3007 17.0323 16.2064 17.0323 16.108V14.8096C17.0321 14.564 16.9653 14.3235 16.8397 14.1159C16.7141 13.9084 16.5348 13.7423 16.3226 13.6369V5.34992C16.3226 5.25154 16.2852 5.15718 16.2187 5.08761C16.1521 5.01804 16.0619 4.97896 15.9677 4.97896C15.968 4.58719 16.1164 4.21142 16.3805 3.93349C16.6446 3.65556 17.0031 3.49798 17.3778 3.49509H17.3867C17.5699 3.49576 17.7511 3.53429 17.92 3.60846C18.0889 3.68263 18.2422 3.79097 18.3709 3.92726C18.6476 4.21435 18.8042 4.60435 18.8065 5.01188V7.57573C18.8063 7.72205 18.8337 7.86697 18.8872 8.00217C18.9407 8.13738 19.0193 8.2602 19.1183 8.3636C19.2173 8.467 19.3349 8.54894 19.4643 8.60472C19.5937 8.6605 19.7323 8.68901 19.8723 8.68863H19.8794C20.1624 8.68302 20.4319 8.56108 20.6296 8.34923C20.8273 8.13738 20.9372 7.85266 20.9355 7.55672V4.05154C20.9356 3.90399 20.9917 3.76253 21.0915 3.6582C21.1913 3.55387 21.3266 3.49521 21.4677 3.49509H21.6452C21.7393 3.49509 21.8295 3.456 21.8961 3.38643C21.9626 3.31686 22 3.2225 22 3.12412V0.898311C22 0.799925 21.9626 0.705568 21.8961 0.635998C21.8295 0.566428 21.7393 0.527344 21.6452 0.527344ZM11.7097 22.229C11.7096 22.3765 11.6534 22.518 11.5537 22.6223C11.4539 22.7266 11.3185 22.7853 11.1774 22.7854H10.8226C10.6815 22.7853 10.5461 22.7266 10.4463 22.6223C10.3466 22.518 10.2904 22.3765 10.2903 22.229V17.5919H11.7097V22.229ZM13.4839 16.8499H8.51613V16.479H13.4839V16.8499ZM16.3226 14.8096V15.737H5.67742V14.8096C5.67754 14.6621 5.73365 14.5206 5.83344 14.4163C5.93324 14.3119 6.06855 14.2533 6.20968 14.2532H15.7903C15.9314 14.2533 16.0668 14.3119 16.1666 14.4163C16.2663 14.5206 16.3225 14.6621 16.3226 14.8096V14.8096ZM14.5484 9.0596C14.4543 9.0596 14.364 9.09869 14.2975 9.16826C14.2309 9.23783 14.1935 9.33218 14.1935 9.43057V13.5112H13.4839V7.20476C13.4839 7.10638 13.4465 7.01202 13.3799 6.94245C13.3134 6.87288 13.2231 6.8338 13.129 6.8338C13.0349 6.8338 12.9447 6.87288 12.8781 6.94245C12.8116 7.01202 12.7742 7.10638 12.7742 7.20476V13.5112H12.0645V8.68863C12.0645 8.59025 12.0271 8.49589 11.9606 8.42632C11.894 8.35675 11.8038 8.31767 11.7097 8.31767C11.6156 8.31767 11.5253 8.35675 11.4588 8.42632C11.3922 8.49589 11.3548 8.59025 11.3548 8.68863V13.5112H10.6452V7.20476C10.6452 7.10638 10.6078 7.01202 10.5412 6.94245C10.4747 6.87288 10.3844 6.8338 10.2903 6.8338C10.1962 6.8338 10.106 6.87288 10.0394 6.94245C9.97287 7.01202 9.93548 7.10638 9.93548 7.20476V13.5112H9.22581V7.9467C9.22581 7.84831 9.18842 7.75395 9.12188 7.68438C9.05533 7.61481 8.96508 7.57573 8.87097 7.57573C8.77686 7.57573 8.6866 7.61481 8.62006 7.68438C8.55351 7.75395 8.51613 7.84831 8.51613 7.9467V13.5112H7.80645V10.1725C7.80645 10.0741 7.76907 9.97976 7.70252 9.91019C7.63598 9.84062 7.54572 9.80154 7.45161 9.80154C7.3575 9.80154 7.26725 9.84062 7.2007 9.91019C7.13416 9.97976 7.09677 10.0741 7.09677 10.1725V13.5112H6.3871V5.72089H7.65964L8.26508 6.35432C8.33172 6.42381 8.42201 6.46283 8.51613 6.46283C8.61025 6.46283 8.70053 6.42381 8.76718 6.35432L9.37262 5.72089H11.9177L12.5231 6.35432C12.5898 6.42381 12.6801 6.46283 12.7742 6.46283C12.8683 6.46283 12.9586 6.42381 13.0252 6.35432L13.5797 5.77422L14.4362 6.07285C14.5255 6.10378 14.6229 6.09662 14.7072 6.05291L15.3419 5.72089H15.6129V13.5112H14.9032V9.43057C14.9032 9.33218 14.8658 9.23783 14.7993 9.16826C14.7328 9.09869 14.6425 9.0596 14.5484 9.0596ZM21.2903 2.7666C20.9949 2.81153 20.7248 2.96606 20.5294 3.20198C20.3339 3.43789 20.2262 3.73944 20.2258 4.05154V7.55672C20.2279 7.65692 20.1923 7.75397 20.1266 7.82693C20.0608 7.8999 19.9703 7.94291 19.8745 7.9467H19.8719C19.8252 7.94689 19.7789 7.93743 19.7357 7.91886C19.6925 7.9003 19.6533 7.873 19.6202 7.83852C19.5872 7.80405 19.561 7.76309 19.5431 7.71799C19.5252 7.67289 19.5161 7.62454 19.5161 7.57573V5.01188C19.5134 4.40687 19.2815 3.82765 18.8712 3.40095C18.6768 3.19604 18.4455 3.03332 18.1908 2.92214C17.936 2.81097 17.6627 2.75354 17.3867 2.75315H17.3729C16.8107 2.75714 16.2729 2.9934 15.8767 3.41038C15.4805 3.82736 15.2581 4.39122 15.2581 4.97896C15.203 4.97901 15.1486 4.99234 15.0993 5.01791L14.5213 5.32025L13.5961 4.99797C13.5336 4.9762 13.4665 4.97304 13.4023 4.98885C13.3382 5.00465 13.2795 5.0388 13.2328 5.08746L12.7742 5.5674L12.3156 5.08746C12.2489 5.01795 12.1586 4.97892 12.0645 4.97896H9.22581C9.13168 4.97892 9.04138 5.01795 8.97476 5.08746L8.51613 5.5674L8.0575 5.08746C7.99088 5.01795 7.90058 4.97892 7.80645 4.97896H6.74194V3.86605C6.74156 3.57101 6.62929 3.28817 6.42973 3.07955C6.23018 2.87092 5.95963 2.75354 5.67742 2.75315H5.32258C5.04037 2.75354 4.76982 2.87092 4.57027 3.07955C4.37071 3.28817 4.25844 3.57101 4.25806 3.86605V6.81293C4.25978 6.91076 4.22586 7.00561 4.16319 7.07827C4.10052 7.15094 4.01377 7.19599 3.92052 7.2043C3.87253 7.20675 3.82456 7.19898 3.77952 7.18147C3.73448 7.16395 3.69331 7.13706 3.65852 7.10241C3.62372 7.06777 3.59601 7.02609 3.57708 6.97992C3.55815 6.93375 3.54839 6.88403 3.54839 6.8338V3.86605C3.54839 3.57089 3.43623 3.28782 3.2366 3.07911C3.03696 2.8704 2.7662 2.75315 2.48387 2.75315C2.20154 2.75315 1.93078 2.8704 1.73114 3.07911C1.53151 3.28782 1.41935 3.57089 1.41935 3.86605V10.9399C1.42107 11.0378 1.38715 11.1326 1.32448 11.2053C1.26181 11.278 1.17506 11.323 1.08181 11.3313C1.03382 11.3338 0.985847 11.326 0.940809 11.3085C0.895771 11.291 0.854605 11.2641 0.819807 11.2294C0.78501 11.1948 0.757305 11.1531 0.738374 11.1069C0.719443 11.0608 0.70968 11.011 0.709677 10.9608V1.26928H21.2903V2.7666Z" fill="white"/>
</svg>
