<svg width="320" height="320" viewBox="0 0 320 320" fill="none" xmlns="http://www.w3.org/2000/svg">
<path d="M66.052 241.884V245.286H64.846V243H56.368V245.286H55.162V241.884H55.702C56.338 241.848 56.77 241.38 56.998 240.48C57.226 239.58 57.382 238.32 57.466 236.7L57.592 233.532H64.576V241.884H66.052ZM58.636 236.772C58.576 238.116 58.462 239.226 58.294 240.102C58.126 240.966 57.826 241.56 57.394 241.884H63.298V234.666H58.744L58.636 236.772ZM73.3486 243.09C72.4366 243.09 71.6146 242.886 70.8826 242.478C70.1506 242.058 69.5746 241.482 69.1546 240.75C68.7346 240.018 68.5246 239.19 68.5246 238.266C68.5246 237.342 68.7346 236.514 69.1546 235.782C69.5746 235.05 70.1506 234.48 70.8826 234.072C71.6146 233.664 72.4366 233.46 73.3486 233.46C74.2606 233.46 75.0826 233.664 75.8146 234.072C76.5466 234.48 77.1166 235.05 77.5246 235.782C77.9446 236.514 78.1546 237.342 78.1546 238.266C78.1546 239.19 77.9446 240.018 77.5246 240.75C77.1166 241.482 76.5466 242.058 75.8146 242.478C75.0826 242.886 74.2606 243.09 73.3486 243.09ZM73.3486 241.956C74.0206 241.956 74.6206 241.806 75.1486 241.506C75.6886 241.194 76.1086 240.756 76.4086 240.192C76.7086 239.628 76.8586 238.986 76.8586 238.266C76.8586 237.546 76.7086 236.904 76.4086 236.34C76.1086 235.776 75.6886 235.344 75.1486 235.044C74.6206 234.732 74.0206 234.576 73.3486 234.576C72.6766 234.576 72.0706 234.732 71.5306 235.044C71.0026 235.344 70.5826 235.776 70.2706 236.34C69.9706 236.904 69.8206 237.546 69.8206 238.266C69.8206 238.986 69.9706 239.628 70.2706 240.192C70.5826 240.756 71.0026 241.194 71.5306 241.506C72.0706 241.806 72.6766 241.956 73.3486 241.956ZM87.816 238.104C89.1 238.404 89.742 239.178 89.742 240.426C89.742 241.254 89.436 241.89 88.824 242.334C88.212 242.778 87.3 243 86.088 243H81.786V233.532H85.962C87.042 233.532 87.888 233.742 88.5 234.162C89.112 234.582 89.418 235.182 89.418 235.962C89.418 236.478 89.274 236.922 88.986 237.294C88.71 237.654 88.32 237.924 87.816 238.104ZM83.028 237.744H85.872C86.604 237.744 87.162 237.606 87.546 237.33C87.942 237.054 88.14 236.652 88.14 236.124C88.14 235.596 87.942 235.2 87.546 234.936C87.162 234.672 86.604 234.54 85.872 234.54H83.028V237.744ZM86.034 241.992C86.85 241.992 87.462 241.86 87.87 241.596C88.278 241.332 88.482 240.918 88.482 240.354C88.482 239.79 88.296 239.376 87.924 239.112C87.552 238.836 86.964 238.698 86.16 238.698H83.028V241.992H86.034ZM97.5431 243.09C96.6311 243.09 95.8091 242.886 95.0771 242.478C94.3451 242.058 93.7691 241.482 93.3491 240.75C92.9291 240.018 92.7191 239.19 92.7191 238.266C92.7191 237.342 92.9291 236.514 93.3491 235.782C93.7691 235.05 94.3451 234.48 95.0771 234.072C95.8091 233.664 96.6311 233.46 97.5431 233.46C98.4551 233.46 99.2771 233.664 100.009 234.072C100.741 234.48 101.311 235.05 101.719 235.782C102.139 236.514 102.349 237.342 102.349 238.266C102.349 239.19 102.139 240.018 101.719 240.75C101.311 241.482 100.741 242.058 100.009 242.478C99.2771 242.886 98.4551 243.09 97.5431 243.09ZM97.5431 241.956C98.2151 241.956 98.8151 241.806 99.3431 241.506C99.8831 241.194 100.303 240.756 100.603 240.192C100.903 239.628 101.053 238.986 101.053 238.266C101.053 237.546 100.903 236.904 100.603 236.34C100.303 235.776 99.8831 235.344 99.3431 235.044C98.8151 234.732 98.2151 234.576 97.5431 234.576C96.8711 234.576 96.2651 234.732 95.7251 235.044C95.1971 235.344 94.7771 235.776 94.4651 236.34C94.1651 236.904 94.0151 237.546 94.0151 238.266C94.0151 238.986 94.1651 239.628 94.4651 240.192C94.7771 240.756 95.1971 241.194 95.7251 241.506C96.2651 241.806 96.8711 241.956 97.5431 241.956ZM113.668 233.532V243H112.39V234.666H107.854L107.728 237.006C107.632 238.974 107.404 240.486 107.044 241.542C106.684 242.598 106.042 243.126 105.118 243.126C104.866 243.126 104.56 243.078 104.2 242.982L104.29 241.884C104.506 241.932 104.656 241.956 104.74 241.956C105.232 241.956 105.604 241.728 105.856 241.272C106.108 240.816 106.276 240.252 106.36 239.58C106.444 238.908 106.516 238.02 106.576 236.916L106.738 233.532H113.668ZM122.269 236.88C123.457 236.892 124.357 237.156 124.969 237.672C125.593 238.188 125.905 238.932 125.905 239.904C125.905 240.912 125.569 241.686 124.897 242.226C124.237 242.766 123.277 243.03 122.017 243.018L118.201 243V233.532H119.479V236.844L122.269 236.88ZM121.945 242.046C122.821 242.058 123.481 241.884 123.925 241.524C124.381 241.152 124.609 240.612 124.609 239.904C124.609 239.208 124.387 238.692 123.943 238.356C123.499 238.02 122.833 237.846 121.945 237.834L119.479 237.798V242.01L121.945 242.046ZM129.243 233.532H130.521V237.726H136.479V233.532H137.757V243H136.479V238.824H130.521V243H129.243V233.532ZM146.268 236.88C147.456 236.892 148.362 237.156 148.986 237.672C149.61 238.188 149.922 238.932 149.922 239.904C149.922 240.912 149.586 241.686 148.914 242.226C148.242 242.766 147.282 243.03 146.034 243.018L142.29 243V233.532H143.568V236.844L146.268 236.88ZM151.506 233.532H152.784V243H151.506V233.532ZM145.962 242.046C146.838 242.058 147.498 241.884 147.942 241.524C148.398 241.152 148.626 240.612 148.626 239.904C148.626 239.208 148.404 238.692 147.96 238.356C147.516 238.02 146.85 237.846 145.962 237.834L143.568 237.798V242.01L145.962 242.046ZM163.245 243L160.239 239.04L157.215 243H155.775L159.519 238.14L155.955 233.532H157.395L160.239 237.24L163.083 233.532H164.487L160.923 238.14L164.703 243H163.245ZM176.746 238.788H174.586V243H173.308V233.532H174.586V237.69H176.764L180.094 233.532H181.48L177.754 238.122L181.75 243H180.238L176.746 238.788ZM192.407 233.532V243H191.129V234.666H186.593L186.467 237.006C186.371 238.974 186.143 240.486 185.783 241.542C185.423 242.598 184.781 243.126 183.857 243.126C183.605 243.126 183.299 243.078 182.939 242.982L183.029 241.884C183.245 241.932 183.395 241.956 183.479 241.956C183.971 241.956 184.343 241.728 184.595 241.272C184.847 240.816 185.015 240.252 185.099 239.58C185.183 238.908 185.255 238.02 185.315 236.916L185.477 233.532H192.407ZM196.94 233.532H198.218V241.056L204.536 233.532H205.67V243H204.392V235.476L198.092 243H196.94V233.532ZM218.513 238.662H210.593C210.665 239.646 211.043 240.444 211.727 241.056C212.411 241.656 213.275 241.956 214.319 241.956C214.907 241.956 215.447 241.854 215.939 241.65C216.431 241.434 216.857 241.122 217.217 240.714L217.937 241.542C217.517 242.046 216.989 242.43 216.353 242.694C215.729 242.958 215.039 243.09 214.283 243.09C213.311 243.09 212.447 242.886 211.691 242.478C210.947 242.058 210.365 241.482 209.945 240.75C209.525 240.018 209.315 239.19 209.315 238.266C209.315 237.342 209.513 236.514 209.909 235.782C210.317 235.05 210.869 234.48 211.565 234.072C212.273 233.664 213.065 233.46 213.941 233.46C214.817 233.46 215.603 233.664 216.299 234.072C216.995 234.48 217.541 235.05 217.937 235.782C218.333 236.502 218.531 237.33 218.531 238.266L218.513 238.662ZM213.941 234.558C213.029 234.558 212.261 234.852 211.637 235.44C211.025 236.016 210.677 236.772 210.593 237.708H217.307C217.223 236.772 216.869 236.016 216.245 235.44C215.633 234.852 214.865 234.558 213.941 234.558ZM222.26 233.532H223.538V237.726H229.496V233.532H230.774V243H229.496V238.824H223.538V243H222.26V233.532ZM241.966 234.666H238.384V243H237.106V234.666H233.524V233.532H241.966V234.666ZM248.181 243.09C247.269 243.09 246.447 242.886 245.715 242.478C244.983 242.058 244.407 241.482 243.987 240.75C243.567 240.018 243.357 239.19 243.357 238.266C243.357 237.342 243.567 236.514 243.987 235.782C244.407 235.05 244.983 234.48 245.715 234.072C246.447 233.664 247.269 233.46 248.181 233.46C249.093 233.46 249.915 233.664 250.647 234.072C251.379 234.48 251.949 235.05 252.357 235.782C252.777 236.514 252.987 237.342 252.987 238.266C252.987 239.19 252.777 240.018 252.357 240.75C251.949 241.482 251.379 242.058 250.647 242.478C249.915 242.886 249.093 243.09 248.181 243.09ZM248.181 241.956C248.853 241.956 249.453 241.806 249.981 241.506C250.521 241.194 250.941 240.756 251.241 240.192C251.541 239.628 251.691 238.986 251.691 238.266C251.691 237.546 251.541 236.904 251.241 236.34C250.941 235.776 250.521 235.344 249.981 235.044C249.453 234.732 248.853 234.576 248.181 234.576C247.509 234.576 246.903 234.732 246.363 235.044C245.835 235.344 245.415 235.776 245.103 236.34C244.803 236.904 244.653 237.546 244.653 238.266C244.653 238.986 244.803 239.628 245.103 240.192C245.415 240.756 245.835 241.194 246.363 241.506C246.903 241.806 247.509 241.956 248.181 241.956ZM262.648 238.104C263.932 238.404 264.574 239.178 264.574 240.426C264.574 241.254 264.268 241.89 263.656 242.334C263.044 242.778 262.132 243 260.92 243H256.618V233.532H260.794C261.874 233.532 262.72 233.742 263.332 234.162C263.944 234.582 264.25 235.182 264.25 235.962C264.25 236.478 264.106 236.922 263.818 237.294C263.542 237.654 263.152 237.924 262.648 238.104ZM257.86 237.744H260.704C261.436 237.744 261.994 237.606 262.378 237.33C262.774 237.054 262.972 236.652 262.972 236.124C262.972 235.596 262.774 235.2 262.378 234.936C261.994 234.672 261.436 234.54 260.704 234.54H257.86V237.744ZM260.866 241.992C261.682 241.992 262.294 241.86 262.702 241.596C263.11 241.332 263.314 240.918 263.314 240.354C263.314 239.79 263.128 239.376 262.756 239.112C262.384 238.836 261.796 238.698 260.992 238.698H257.86V241.992H260.866Z" fill="white"/>
<path d="M132.408 59.766C133.284 59.766 134.064 59.964 134.748 60.36C135.444 60.744 135.984 61.29 136.368 61.998C136.752 62.694 136.944 63.492 136.944 64.392C136.944 65.316 136.74 66.138 136.332 66.858C135.936 67.566 135.378 68.118 134.658 68.514C133.938 68.91 133.11 69.108 132.174 69.108C130.602 69.108 129.384 68.556 128.52 67.452C127.656 66.348 127.224 64.824 127.224 62.88C127.224 60.852 127.608 59.298 128.376 58.218C129.156 57.138 130.368 56.406 132.012 56.022L136.26 55.05L136.476 56.22L132.48 57.138C131.124 57.438 130.128 57.972 129.492 58.74C128.856 59.496 128.508 60.618 128.448 62.106C128.832 61.374 129.366 60.804 130.05 60.396C130.734 59.976 131.52 59.766 132.408 59.766ZM132.21 68.046C132.87 68.046 133.458 67.896 133.974 67.596C134.502 67.284 134.91 66.852 135.198 66.3C135.498 65.748 135.648 65.124 135.648 64.428C135.648 63.732 135.504 63.12 135.216 62.592C134.928 62.064 134.52 61.656 133.992 61.368C133.476 61.068 132.882 60.918 132.21 60.918C131.538 60.918 130.938 61.068 130.41 61.368C129.894 61.656 129.486 62.064 129.186 62.592C128.898 63.12 128.754 63.732 128.754 64.428C128.754 65.124 128.898 65.748 129.186 66.3C129.486 66.852 129.9 67.284 130.428 67.596C130.956 67.896 131.55 68.046 132.21 68.046ZM144.489 69.09C143.577 69.09 142.755 68.886 142.023 68.478C141.291 68.058 140.715 67.482 140.295 66.75C139.875 66.018 139.665 65.19 139.665 64.266C139.665 63.342 139.875 62.514 140.295 61.782C140.715 61.05 141.291 60.48 142.023 60.072C142.755 59.664 143.577 59.46 144.489 59.46C145.401 59.46 146.223 59.664 146.955 60.072C147.687 60.48 148.257 61.05 148.665 61.782C149.085 62.514 149.295 63.342 149.295 64.266C149.295 65.19 149.085 66.018 148.665 66.75C148.257 67.482 147.687 68.058 146.955 68.478C146.223 68.886 145.401 69.09 144.489 69.09ZM144.489 67.956C145.161 67.956 145.761 67.806 146.289 67.506C146.829 67.194 147.249 66.756 147.549 66.192C147.849 65.628 147.999 64.986 147.999 64.266C147.999 63.546 147.849 62.904 147.549 62.34C147.249 61.776 146.829 61.344 146.289 61.044C145.761 60.732 145.161 60.576 144.489 60.576C143.817 60.576 143.211 60.732 142.671 61.044C142.143 61.344 141.723 61.776 141.411 62.34C141.111 62.904 140.961 63.546 140.961 64.266C140.961 64.986 141.111 65.628 141.411 66.192C141.723 66.756 142.143 67.194 142.671 67.506C143.211 67.806 143.817 67.956 144.489 67.956ZM160.614 59.532V69H159.336V60.666H154.8L154.674 63.006C154.578 64.974 154.35 66.486 153.99 67.542C153.63 68.598 152.988 69.126 152.064 69.126C151.812 69.126 151.506 69.078 151.146 68.982L151.236 67.884C151.452 67.932 151.602 67.956 151.686 67.956C152.178 67.956 152.55 67.728 152.802 67.272C153.054 66.816 153.222 66.252 153.306 65.58C153.39 64.908 153.462 64.02 153.522 62.916L153.684 59.532H160.614ZM173.427 64.662H165.507C165.579 65.646 165.957 66.444 166.641 67.056C167.325 67.656 168.189 67.956 169.233 67.956C169.821 67.956 170.361 67.854 170.853 67.65C171.345 67.434 171.771 67.122 172.131 66.714L172.851 67.542C172.431 68.046 171.903 68.43 171.267 68.694C170.643 68.958 169.953 69.09 169.197 69.09C168.225 69.09 167.361 68.886 166.605 68.478C165.861 68.058 165.279 67.482 164.859 66.75C164.439 66.018 164.229 65.19 164.229 64.266C164.229 63.342 164.427 62.514 164.823 61.782C165.231 61.05 165.783 60.48 166.479 60.072C167.187 59.664 167.979 59.46 168.855 59.46C169.731 59.46 170.517 59.664 171.213 60.072C171.909 60.48 172.455 61.05 172.851 61.782C173.247 62.502 173.445 63.33 173.445 64.266L173.427 64.662ZM168.855 60.558C167.943 60.558 167.175 60.852 166.551 61.44C165.939 62.016 165.591 62.772 165.507 63.708H172.221C172.137 62.772 171.783 62.016 171.159 61.44C170.547 60.852 169.779 60.558 168.855 60.558ZM185.454 64.662H177.534C177.606 65.646 177.984 66.444 178.668 67.056C179.352 67.656 180.216 67.956 181.26 67.956C181.848 67.956 182.388 67.854 182.88 67.65C183.372 67.434 183.798 67.122 184.158 66.714L184.878 67.542C184.458 68.046 183.93 68.43 183.294 68.694C182.67 68.958 181.98 69.09 181.224 69.09C180.252 69.09 179.388 68.886 178.632 68.478C177.888 68.058 177.306 67.482 176.886 66.75C176.466 66.018 176.256 65.19 176.256 64.266C176.256 63.342 176.454 62.514 176.85 61.782C177.258 61.05 177.81 60.48 178.506 60.072C179.214 59.664 180.006 59.46 180.882 59.46C181.758 59.46 182.544 59.664 183.24 60.072C183.936 60.48 184.482 61.05 184.878 61.782C185.274 62.502 185.472 63.33 185.472 64.266L185.454 64.662ZM180.882 60.558C179.97 60.558 179.202 60.852 178.578 61.44C177.966 62.016 177.618 62.772 177.534 63.708H184.248C184.164 62.772 183.81 62.016 183.186 61.44C182.574 60.852 181.806 60.558 180.882 60.558Z" fill="white"/>
<path d="M78.9 148.3C88.7667 148.3 96.0333 150.267 100.7 154.2C105.433 158.133 107.8 163.4 107.8 170C107.8 174.267 106.733 178.167 104.6 181.7C102.467 185.167 99.2 187.967 94.8 190.1C90.4667 192.167 85.1 193.2 78.7 193.2C73.7667 193.2 68.9 192.567 64.1 191.3C59.3667 189.967 55.3333 188.1 52 185.7L58.4 173.3C61.0667 175.3 64.1333 176.867 67.6 178C71.0667 179.067 74.6333 179.6 78.3 179.6C82.3667 179.6 85.5667 178.8 87.9 177.2C90.2333 175.6 91.4 173.367 91.4 170.5C91.4 167.5 90.1667 165.233 87.7 163.7C85.3 162.167 81.1 161.4 75.1 161.4H57.2L60.8 122H103.5V135H74.3L73.2 148.3H78.9ZM149.373 193.2C143.573 193.2 138.406 191.767 133.873 188.9C129.339 186.033 125.773 181.9 123.173 176.5C120.639 171.033 119.373 164.533 119.373 157C119.373 149.467 120.639 143 123.173 137.6C125.773 132.133 129.339 127.967 133.873 125.1C138.406 122.233 143.573 120.8 149.373 120.8C155.173 120.8 160.339 122.233 164.873 125.1C169.406 127.967 172.939 132.133 175.473 137.6C178.073 143 179.373 149.467 179.373 157C179.373 164.533 178.073 171.033 175.473 176.5C172.939 181.9 169.406 186.033 164.873 188.9C160.339 191.767 155.173 193.2 149.373 193.2ZM149.373 179.5C153.639 179.5 156.973 177.667 159.373 174C161.839 170.333 163.073 164.667 163.073 157C163.073 149.333 161.839 143.667 159.373 140C156.973 136.333 153.639 134.5 149.373 134.5C145.173 134.5 141.839 136.333 139.373 140C136.973 143.667 135.773 149.333 135.773 157C135.773 164.667 136.973 170.333 139.373 174C141.839 177.667 145.173 179.5 149.373 179.5ZM222.244 193.2C216.444 193.2 211.277 191.767 206.744 188.9C202.21 186.033 198.644 181.9 196.044 176.5C193.51 171.033 192.244 164.533 192.244 157C192.244 149.467 193.51 143 196.044 137.6C198.644 132.133 202.21 127.967 206.744 125.1C211.277 122.233 216.444 120.8 222.244 120.8C228.044 120.8 233.21 122.233 237.744 125.1C242.277 127.967 245.81 132.133 248.344 137.6C250.944 143 252.244 149.467 252.244 157C252.244 164.533 250.944 171.033 248.344 176.5C245.81 181.9 242.277 186.033 237.744 188.9C233.21 191.767 228.044 193.2 222.244 193.2ZM222.244 179.5C226.51 179.5 229.844 177.667 232.244 174C234.71 170.333 235.944 164.667 235.944 157C235.944 149.333 234.71 143.667 232.244 140C229.844 136.333 226.51 134.5 222.244 134.5C218.044 134.5 214.71 136.333 212.244 140C209.844 143.667 208.644 149.333 208.644 157C208.644 164.667 209.844 170.333 212.244 174C214.71 177.667 218.044 179.5 222.244 179.5Z" fill="#FF7A00"/>
<circle cx="160" cy="160" r="158.5" stroke="#FF7A00" stroke-width="3"/>
</svg>
