<svg width="320" height="320" viewBox="0 0 320 320" fill="none" xmlns="http://www.w3.org/2000/svg">
<path d="M69.402 233.532V243H68.232V235.512L64.398 241.848H63.822L59.988 235.494V243H58.818V233.532H60.114L64.128 240.354L68.214 233.532H69.402ZM81.6607 241.848V243H72.8227V242.082L78.0607 236.952C78.7207 236.304 79.1647 235.746 79.3927 235.278C79.6327 234.798 79.7527 234.318 79.7527 233.838C79.7527 233.094 79.4947 232.518 78.9787 232.11C78.4747 231.69 77.7487 231.48 76.8007 231.48C75.3247 231.48 74.1787 231.948 73.3627 232.884L72.4447 232.092C72.9367 231.516 73.5607 231.072 74.3167 230.76C75.0847 230.448 75.9487 230.292 76.9087 230.292C78.1927 230.292 79.2067 230.598 79.9507 231.21C80.7067 231.81 81.0847 232.638 81.0847 233.694C81.0847 234.342 80.9407 234.966 80.6527 235.566C80.3647 236.166 79.8187 236.856 79.0147 237.636L74.7307 241.848H81.6607ZM97.3761 234.666H91.9581V243H90.6801V233.532H97.3761V234.666ZM103.59 243.09C102.678 243.09 101.856 242.886 101.124 242.478C100.392 242.058 99.8156 241.482 99.3956 240.75C98.9756 240.018 98.7656 239.19 98.7656 238.266C98.7656 237.342 98.9756 236.514 99.3956 235.782C99.8156 235.05 100.392 234.48 101.124 234.072C101.856 233.664 102.678 233.46 103.59 233.46C104.502 233.46 105.324 233.664 106.056 234.072C106.788 234.48 107.358 235.05 107.766 235.782C108.186 236.514 108.396 237.342 108.396 238.266C108.396 239.19 108.186 240.018 107.766 240.75C107.358 241.482 106.788 242.058 106.056 242.478C105.324 242.886 104.502 243.09 103.59 243.09ZM103.59 241.956C104.262 241.956 104.862 241.806 105.39 241.506C105.93 241.194 106.35 240.756 106.65 240.192C106.95 239.628 107.1 238.986 107.1 238.266C107.1 237.546 106.95 236.904 106.65 236.34C106.35 235.776 105.93 235.344 105.39 235.044C104.862 234.732 104.262 234.576 103.59 234.576C102.918 234.576 102.312 234.732 101.772 235.044C101.244 235.344 100.824 235.776 100.512 236.34C100.212 236.904 100.062 237.546 100.062 238.266C100.062 238.986 100.212 239.628 100.512 240.192C100.824 240.756 101.244 241.194 101.772 241.506C102.312 241.806 102.918 241.956 103.59 241.956ZM118.335 234.666H114.753V243H113.475V234.666H109.893V233.532H118.335V234.666ZM124.55 243.09C123.638 243.09 122.816 242.886 122.084 242.478C121.352 242.058 120.776 241.482 120.356 240.75C119.936 240.018 119.726 239.19 119.726 238.266C119.726 237.342 119.936 236.514 120.356 235.782C120.776 235.05 121.352 234.48 122.084 234.072C122.816 233.664 123.638 233.46 124.55 233.46C125.462 233.46 126.284 233.664 127.016 234.072C127.748 234.48 128.318 235.05 128.726 235.782C129.146 236.514 129.356 237.342 129.356 238.266C129.356 239.19 129.146 240.018 128.726 240.75C128.318 241.482 127.748 242.058 127.016 242.478C126.284 242.886 125.462 243.09 124.55 243.09ZM124.55 241.956C125.222 241.956 125.822 241.806 126.35 241.506C126.89 241.194 127.31 240.756 127.61 240.192C127.91 239.628 128.06 238.986 128.06 238.266C128.06 237.546 127.91 236.904 127.61 236.34C127.31 235.776 126.89 235.344 126.35 235.044C125.822 234.732 125.222 234.576 124.55 234.576C123.878 234.576 123.272 234.732 122.732 235.044C122.204 235.344 121.784 235.776 121.472 236.34C121.172 236.904 121.022 237.546 121.022 238.266C121.022 238.986 121.172 239.628 121.472 240.192C121.784 240.756 122.204 241.194 122.732 241.506C123.272 241.806 123.878 241.956 124.55 241.956ZM139.017 238.104C140.301 238.404 140.943 239.178 140.943 240.426C140.943 241.254 140.637 241.89 140.025 242.334C139.413 242.778 138.501 243 137.289 243H132.987V233.532H137.163C138.243 233.532 139.089 233.742 139.701 234.162C140.313 234.582 140.619 235.182 140.619 235.962C140.619 236.478 140.475 236.922 140.187 237.294C139.911 237.654 139.521 237.924 139.017 238.104ZM134.229 237.744H137.073C137.805 237.744 138.363 237.606 138.747 237.33C139.143 237.054 139.341 236.652 139.341 236.124C139.341 235.596 139.143 235.2 138.747 234.936C138.363 234.672 137.805 234.54 137.073 234.54H134.229V237.744ZM137.235 241.992C138.051 241.992 138.663 241.86 139.071 241.596C139.479 241.332 139.683 240.918 139.683 240.354C139.683 239.79 139.497 239.376 139.125 239.112C138.753 238.836 138.165 238.698 137.361 238.698H134.229V241.992H137.235ZM148.816 236.88C150.004 236.892 150.91 237.156 151.534 237.672C152.158 238.188 152.47 238.932 152.47 239.904C152.47 240.912 152.134 241.686 151.462 242.226C150.79 242.766 149.83 243.03 148.582 243.018L144.838 243V233.532H146.116V236.844L148.816 236.88ZM154.054 233.532H155.332V243H154.054V233.532ZM148.51 242.046C149.386 242.058 150.046 241.884 150.49 241.524C150.946 241.152 151.174 240.612 151.174 239.904C151.174 239.208 150.952 238.692 150.508 238.356C150.064 238.02 149.398 237.846 148.51 237.834L146.116 237.798V242.01L148.51 242.046ZM165.793 243L162.787 239.04L159.763 243H158.323L162.067 238.14L158.503 233.532H159.943L162.787 237.24L165.631 233.532H167.035L163.471 238.14L167.251 243H165.793ZM179.763 243.09C178.851 243.09 178.029 242.886 177.297 242.478C176.565 242.058 175.989 241.482 175.569 240.75C175.149 240.018 174.939 239.19 174.939 238.266C174.939 237.342 175.149 236.514 175.569 235.782C175.989 235.05 176.565 234.48 177.297 234.072C178.029 233.664 178.851 233.46 179.763 233.46C180.675 233.46 181.497 233.664 182.229 234.072C182.961 234.48 183.531 235.05 183.939 235.782C184.359 236.514 184.569 237.342 184.569 238.266C184.569 239.19 184.359 240.018 183.939 240.75C183.531 241.482 182.961 242.058 182.229 242.478C181.497 242.886 180.675 243.09 179.763 243.09ZM179.763 241.956C180.435 241.956 181.035 241.806 181.563 241.506C182.103 241.194 182.523 240.756 182.823 240.192C183.123 239.628 183.273 238.986 183.273 238.266C183.273 237.546 183.123 236.904 182.823 236.34C182.523 235.776 182.103 235.344 181.563 235.044C181.035 234.732 180.435 234.576 179.763 234.576C179.091 234.576 178.485 234.732 177.945 235.044C177.417 235.344 176.997 235.776 176.685 236.34C176.385 236.904 176.235 237.546 176.235 238.266C176.235 238.986 176.385 239.628 176.685 240.192C176.997 240.756 177.417 241.194 177.945 241.506C178.485 241.806 179.091 241.956 179.763 241.956ZM192.79 233.766C193.666 233.766 194.446 233.964 195.13 234.36C195.826 234.744 196.366 235.29 196.75 235.998C197.134 236.694 197.326 237.492 197.326 238.392C197.326 239.316 197.122 240.138 196.714 240.858C196.318 241.566 195.76 242.118 195.04 242.514C194.32 242.91 193.492 243.108 192.556 243.108C190.984 243.108 189.766 242.556 188.902 241.452C188.038 240.348 187.606 238.824 187.606 236.88C187.606 234.852 187.99 233.298 188.758 232.218C189.538 231.138 190.75 230.406 192.394 230.022L196.642 229.05L196.858 230.22L192.862 231.138C191.506 231.438 190.51 231.972 189.874 232.74C189.238 233.496 188.89 234.618 188.83 236.106C189.214 235.374 189.748 234.804 190.432 234.396C191.116 233.976 191.902 233.766 192.79 233.766ZM192.592 242.046C193.252 242.046 193.84 241.896 194.356 241.596C194.884 241.284 195.292 240.852 195.58 240.3C195.88 239.748 196.03 239.124 196.03 238.428C196.03 237.732 195.886 237.12 195.598 236.592C195.31 236.064 194.902 235.656 194.374 235.368C193.858 235.068 193.264 234.918 192.592 234.918C191.92 234.918 191.32 235.068 190.792 235.368C190.276 235.656 189.868 236.064 189.568 236.592C189.28 237.12 189.136 237.732 189.136 238.428C189.136 239.124 189.28 239.748 189.568 240.3C189.868 240.852 190.282 241.284 190.81 241.596C191.338 241.896 191.932 242.046 192.592 242.046ZM205.78 236.844C206.944 236.844 207.832 237.108 208.444 237.636C209.056 238.164 209.362 238.908 209.362 239.868C209.362 240.888 209.032 241.668 208.372 242.208C207.712 242.736 206.764 243 205.528 243H201.784V234.666H198.832V233.532H203.062V236.844H205.78ZM205.51 242.01C206.35 242.01 206.986 241.83 207.418 241.47C207.85 241.11 208.066 240.576 208.066 239.868C208.066 238.5 207.214 237.816 205.51 237.816H203.062V242.01H205.51ZM220.973 238.662H213.053C213.125 239.646 213.503 240.444 214.187 241.056C214.871 241.656 215.735 241.956 216.779 241.956C217.367 241.956 217.907 241.854 218.399 241.65C218.891 241.434 219.317 241.122 219.677 240.714L220.397 241.542C219.977 242.046 219.449 242.43 218.813 242.694C218.189 242.958 217.499 243.09 216.743 243.09C215.771 243.09 214.907 242.886 214.151 242.478C213.407 242.058 212.825 241.482 212.405 240.75C211.985 240.018 211.775 239.19 211.775 238.266C211.775 237.342 211.973 236.514 212.369 235.782C212.777 235.05 213.329 234.48 214.025 234.072C214.733 233.664 215.525 233.46 216.401 233.46C217.277 233.46 218.063 233.664 218.759 234.072C219.455 234.48 220.001 235.05 220.397 235.782C220.793 236.502 220.991 237.33 220.991 238.266L220.973 238.662ZM216.401 234.558C215.489 234.558 214.721 234.852 214.097 235.44C213.485 236.016 213.137 236.772 213.053 237.708H219.767C219.683 236.772 219.329 236.016 218.705 235.44C218.093 234.852 217.325 234.558 216.401 234.558ZM228.158 238.788H225.998V243H224.72V233.532H225.998V237.69H228.176L231.506 233.532H232.892L229.166 238.122L233.162 243H231.65L228.158 238.788ZM242.546 234.666H238.964V243H237.686V234.666H234.104V233.532H242.546V234.666ZM248.76 243.09C247.848 243.09 247.026 242.886 246.294 242.478C245.562 242.058 244.986 241.482 244.566 240.75C244.146 240.018 243.936 239.19 243.936 238.266C243.936 237.342 244.146 236.514 244.566 235.782C244.986 235.05 245.562 234.48 246.294 234.072C247.026 233.664 247.848 233.46 248.76 233.46C249.672 233.46 250.494 233.664 251.226 234.072C251.958 234.48 252.528 235.05 252.936 235.782C253.356 236.514 253.566 237.342 253.566 238.266C253.566 239.19 253.356 240.018 252.936 240.75C252.528 241.482 251.958 242.058 251.226 242.478C250.494 242.886 249.672 243.09 248.76 243.09ZM248.76 241.956C249.432 241.956 250.032 241.806 250.56 241.506C251.1 241.194 251.52 240.756 251.82 240.192C252.12 239.628 252.27 238.986 252.27 238.266C252.27 237.546 252.12 236.904 251.82 236.34C251.52 235.776 251.1 235.344 250.56 235.044C250.032 234.732 249.432 234.576 248.76 234.576C248.088 234.576 247.482 234.732 246.942 235.044C246.414 235.344 245.994 235.776 245.682 236.34C245.382 236.904 245.232 237.546 245.232 238.266C245.232 238.986 245.382 239.628 245.682 240.192C245.994 240.756 246.414 241.194 246.942 241.506C247.482 241.806 248.088 241.956 248.76 241.956ZM263.228 238.104C264.512 238.404 265.154 239.178 265.154 240.426C265.154 241.254 264.848 241.89 264.236 242.334C263.624 242.778 262.712 243 261.5 243H257.198V233.532H261.374C262.454 233.532 263.3 233.742 263.912 234.162C264.524 234.582 264.83 235.182 264.83 235.962C264.83 236.478 264.686 236.922 264.398 237.294C264.122 237.654 263.732 237.924 263.228 238.104ZM258.44 237.744H261.284C262.016 237.744 262.574 237.606 262.958 237.33C263.354 237.054 263.552 236.652 263.552 236.124C263.552 235.596 263.354 235.2 262.958 234.936C262.574 234.672 262.016 234.54 261.284 234.54H258.44V237.744ZM261.446 241.992C262.262 241.992 262.874 241.86 263.282 241.596C263.69 241.332 263.894 240.918 263.894 240.354C263.894 239.79 263.708 239.376 263.336 239.112C262.964 238.836 262.376 238.698 261.572 238.698H258.44V241.992H261.446Z" fill="white"/>
<path d="M135.408 59.766C136.284 59.766 137.064 59.964 137.748 60.36C138.444 60.744 138.984 61.29 139.368 61.998C139.752 62.694 139.944 63.492 139.944 64.392C139.944 65.316 139.74 66.138 139.332 66.858C138.936 67.566 138.378 68.118 137.658 68.514C136.938 68.91 136.11 69.108 135.174 69.108C133.602 69.108 132.384 68.556 131.52 67.452C130.656 66.348 130.224 64.824 130.224 62.88C130.224 60.852 130.608 59.298 131.376 58.218C132.156 57.138 133.368 56.406 135.012 56.022L139.26 55.05L139.476 56.22L135.48 57.138C134.124 57.438 133.128 57.972 132.492 58.74C131.856 59.496 131.508 60.618 131.448 62.106C131.832 61.374 132.366 60.804 133.05 60.396C133.734 59.976 134.52 59.766 135.408 59.766ZM135.21 68.046C135.87 68.046 136.458 67.896 136.974 67.596C137.502 67.284 137.91 66.852 138.198 66.3C138.498 65.748 138.648 65.124 138.648 64.428C138.648 63.732 138.504 63.12 138.216 62.592C137.928 62.064 137.52 61.656 136.992 61.368C136.476 61.068 135.882 60.918 135.21 60.918C134.538 60.918 133.938 61.068 133.41 61.368C132.894 61.656 132.486 62.064 132.186 62.592C131.898 63.12 131.754 63.732 131.754 64.428C131.754 65.124 131.898 65.748 132.186 66.3C132.486 66.852 132.9 67.284 133.428 67.596C133.956 67.896 134.55 68.046 135.21 68.046ZM147.489 69.09C146.577 69.09 145.755 68.886 145.023 68.478C144.291 68.058 143.715 67.482 143.295 66.75C142.875 66.018 142.665 65.19 142.665 64.266C142.665 63.342 142.875 62.514 143.295 61.782C143.715 61.05 144.291 60.48 145.023 60.072C145.755 59.664 146.577 59.46 147.489 59.46C148.401 59.46 149.223 59.664 149.955 60.072C150.687 60.48 151.257 61.05 151.665 61.782C152.085 62.514 152.295 63.342 152.295 64.266C152.295 65.19 152.085 66.018 151.665 66.75C151.257 67.482 150.687 68.058 149.955 68.478C149.223 68.886 148.401 69.09 147.489 69.09ZM147.489 67.956C148.161 67.956 148.761 67.806 149.289 67.506C149.829 67.194 150.249 66.756 150.549 66.192C150.849 65.628 150.999 64.986 150.999 64.266C150.999 63.546 150.849 62.904 150.549 62.34C150.249 61.776 149.829 61.344 149.289 61.044C148.761 60.732 148.161 60.576 147.489 60.576C146.817 60.576 146.211 60.732 145.671 61.044C145.143 61.344 144.723 61.776 144.411 62.34C144.111 62.904 143.961 63.546 143.961 64.266C143.961 64.986 144.111 65.628 144.411 66.192C144.723 66.756 145.143 67.194 145.671 67.506C146.211 67.806 146.817 67.956 147.489 67.956ZM163.614 59.532V69H162.336V60.666H157.8L157.674 63.006C157.578 64.974 157.35 66.486 156.99 67.542C156.63 68.598 155.988 69.126 155.064 69.126C154.812 69.126 154.506 69.078 154.146 68.982L154.236 67.884C154.452 67.932 154.602 67.956 154.686 67.956C155.178 67.956 155.55 67.728 155.802 67.272C156.054 66.816 156.222 66.252 156.306 65.58C156.39 64.908 156.462 64.02 156.522 62.916L156.684 59.532H163.614ZM176.427 64.662H168.507C168.579 65.646 168.957 66.444 169.641 67.056C170.325 67.656 171.189 67.956 172.233 67.956C172.821 67.956 173.361 67.854 173.853 67.65C174.345 67.434 174.771 67.122 175.131 66.714L175.851 67.542C175.431 68.046 174.903 68.43 174.267 68.694C173.643 68.958 172.953 69.09 172.197 69.09C171.225 69.09 170.361 68.886 169.605 68.478C168.861 68.058 168.279 67.482 167.859 66.75C167.439 66.018 167.229 65.19 167.229 64.266C167.229 63.342 167.427 62.514 167.823 61.782C168.231 61.05 168.783 60.48 169.479 60.072C170.187 59.664 170.979 59.46 171.855 59.46C172.731 59.46 173.517 59.664 174.213 60.072C174.909 60.48 175.455 61.05 175.851 61.782C176.247 62.502 176.445 63.33 176.445 64.266L176.427 64.662ZM171.855 60.558C170.943 60.558 170.175 60.852 169.551 61.44C168.939 62.016 168.591 62.772 168.507 63.708H175.221C175.137 62.772 174.783 62.016 174.159 61.44C173.547 60.852 172.779 60.558 171.855 60.558ZM188.454 64.662H180.534C180.606 65.646 180.984 66.444 181.668 67.056C182.352 67.656 183.216 67.956 184.26 67.956C184.848 67.956 185.388 67.854 185.88 67.65C186.372 67.434 186.798 67.122 187.158 66.714L187.878 67.542C187.458 68.046 186.93 68.43 186.294 68.694C185.67 68.958 184.98 69.09 184.224 69.09C183.252 69.09 182.388 68.886 181.632 68.478C180.888 68.058 180.306 67.482 179.886 66.75C179.466 66.018 179.256 65.19 179.256 64.266C179.256 63.342 179.454 62.514 179.85 61.782C180.258 61.05 180.81 60.48 181.506 60.072C182.214 59.664 183.006 59.46 183.882 59.46C184.758 59.46 185.544 59.664 186.24 60.072C186.936 60.48 187.482 61.05 187.878 61.782C188.274 62.502 188.472 63.33 188.472 64.266L188.454 64.662ZM183.882 60.558C182.97 60.558 182.202 60.852 181.578 61.44C180.966 62.016 180.618 62.772 180.534 63.708H187.248C187.164 62.772 186.81 62.016 186.186 61.44C185.574 60.852 184.806 60.558 183.882 60.558Z" fill="white"/>
<path d="M54.9 122V192H38.7V135H24.7V122H54.9ZM102.06 193.2C96.2602 193.2 91.0935 191.767 86.5602 188.9C82.0268 186.033 78.4602 181.9 75.8602 176.5C73.3268 171.033 72.0602 164.533 72.0602 157C72.0602 149.467 73.3268 143 75.8602 137.6C78.4602 132.133 82.0268 127.967 86.5602 125.1C91.0935 122.233 96.2602 120.8 102.06 120.8C107.86 120.8 113.027 122.233 117.56 125.1C122.093 127.967 125.627 132.133 128.16 137.6C130.76 143 132.06 149.467 132.06 157C132.06 164.533 130.76 171.033 128.16 176.5C125.627 181.9 122.093 186.033 117.56 188.9C113.027 191.767 107.86 193.2 102.06 193.2ZM102.06 179.5C106.327 179.5 109.66 177.667 112.06 174C114.527 170.333 115.76 164.667 115.76 157C115.76 149.333 114.527 143.667 112.06 140C109.66 136.333 106.327 134.5 102.06 134.5C97.8602 134.5 94.5268 136.333 92.0602 140C89.6602 143.667 88.4602 149.333 88.4602 157C88.4602 164.667 89.6602 170.333 92.0602 174C94.5268 177.667 97.8602 179.5 102.06 179.5ZM174.931 193.2C169.131 193.2 163.965 191.767 159.431 188.9C154.898 186.033 151.331 181.9 148.731 176.5C146.198 171.033 144.931 164.533 144.931 157C144.931 149.467 146.198 143 148.731 137.6C151.331 132.133 154.898 127.967 159.431 125.1C163.965 122.233 169.131 120.8 174.931 120.8C180.731 120.8 185.898 122.233 190.431 125.1C194.965 127.967 198.498 132.133 201.031 137.6C203.631 143 204.931 149.467 204.931 157C204.931 164.533 203.631 171.033 201.031 176.5C198.498 181.9 194.965 186.033 190.431 188.9C185.898 191.767 180.731 193.2 174.931 193.2ZM174.931 179.5C179.198 179.5 182.531 177.667 184.931 174C187.398 170.333 188.631 164.667 188.631 157C188.631 149.333 187.398 143.667 184.931 140C182.531 136.333 179.198 134.5 174.931 134.5C170.731 134.5 167.398 136.333 164.931 140C162.531 143.667 161.331 149.333 161.331 157C161.331 164.667 162.531 170.333 164.931 174C167.398 177.667 170.731 179.5 174.931 179.5ZM247.802 193.2C242.002 193.2 236.836 191.767 232.302 188.9C227.769 186.033 224.202 181.9 221.602 176.5C219.069 171.033 217.802 164.533 217.802 157C217.802 149.467 219.069 143 221.602 137.6C224.202 132.133 227.769 127.967 232.302 125.1C236.836 122.233 242.002 120.8 247.802 120.8C253.602 120.8 258.769 122.233 263.302 125.1C267.836 127.967 271.369 132.133 273.902 137.6C276.502 143 277.802 149.467 277.802 157C277.802 164.533 276.502 171.033 273.902 176.5C271.369 181.9 267.836 186.033 263.302 188.9C258.769 191.767 253.602 193.2 247.802 193.2ZM247.802 179.5C252.069 179.5 255.402 177.667 257.802 174C260.269 170.333 261.502 164.667 261.502 157C261.502 149.333 260.269 143.667 257.802 140C255.402 136.333 252.069 134.5 247.802 134.5C243.602 134.5 240.269 136.333 237.802 140C235.402 143.667 234.202 149.333 234.202 157C234.202 164.667 235.402 170.333 237.802 174C240.269 177.667 243.602 179.5 247.802 179.5Z" fill="#FF7A00"/>
<path d="M54.9 122H55.9V121H54.9V122ZM54.9 192V193H55.9V192H54.9ZM38.7 192H37.7V193H38.7V192ZM38.7 135H39.7V134H38.7V135ZM24.7 135H23.7V136H24.7V135ZM24.7 122V121H23.7V122H24.7ZM53.9 122V192H55.9V122H53.9ZM54.9 191H38.7V193H54.9V191ZM39.7 192V135H37.7V192H39.7ZM38.7 134H24.7V136H38.7V134ZM25.7 135V122H23.7V135H25.7ZM24.7 123H54.9V121H24.7V123ZM86.5602 188.9L87.0946 188.055L86.5602 188.9ZM75.8602 176.5L74.9528 176.92L74.956 176.927L74.9592 176.934L75.8602 176.5ZM75.8602 137.6L74.9571 137.17L74.9548 137.175L75.8602 137.6ZM86.5602 125.1L87.0946 125.945L86.5602 125.1ZM117.56 125.1L117.026 125.945L117.56 125.1ZM128.16 137.6L127.253 138.02L127.256 138.027L127.259 138.034L128.16 137.6ZM128.16 176.5L127.257 176.07L127.255 176.075L128.16 176.5ZM117.56 188.9L117.026 188.055L117.56 188.9ZM112.06 174L111.23 173.442L111.223 173.452L112.06 174ZM112.06 140L111.223 140.548L111.23 140.558L112.06 140ZM92.0602 140L91.2304 139.442L91.2235 139.452L92.0602 140ZM92.0602 174L91.2234 174.548L91.2304 174.558L92.0602 174ZM102.06 192.2C96.4333 192.2 91.455 190.812 87.0946 188.055L86.0257 189.745C90.732 192.721 96.087 194.2 102.06 194.2V192.2ZM87.0946 188.055C82.7377 185.3 79.2897 181.318 76.7612 176.066L74.9592 176.934C77.6306 182.482 81.316 186.767 86.0257 189.745L87.0946 188.055ZM76.7675 176.08C74.3085 170.773 73.0602 164.423 73.0602 157H71.0602C71.0602 164.643 72.3452 171.293 74.9528 176.92L76.7675 176.08ZM73.0602 157C73.0602 149.576 74.3087 143.262 76.7655 138.025L74.9548 137.175C72.345 142.738 71.0602 149.357 71.0602 157H73.0602ZM76.7632 138.03C79.2928 132.711 82.7408 128.698 87.0946 125.945L86.0257 124.255C81.3128 127.235 77.6275 131.556 74.9571 137.17L76.7632 138.03ZM87.0946 125.945C91.455 123.188 96.4333 121.8 102.06 121.8V119.8C96.087 119.8 90.732 121.279 86.0257 124.255L87.0946 125.945ZM102.06 121.8C107.687 121.8 112.665 123.188 117.026 125.945L118.095 124.255C113.388 121.279 108.033 119.8 102.06 119.8V121.8ZM117.026 125.945C121.377 128.697 124.79 132.706 127.253 138.02L129.067 137.18C126.464 131.561 122.81 127.237 118.095 124.255L117.026 125.945ZM127.259 138.034C129.779 143.268 131.06 149.579 131.06 157H133.06C133.06 149.354 131.741 142.732 129.061 137.166L127.259 138.034ZM131.06 157C131.06 164.42 129.78 170.767 127.257 176.07L129.063 176.93C131.741 171.3 133.06 164.647 133.06 157H131.06ZM127.255 176.075C124.793 181.323 121.38 185.301 117.026 188.055L118.095 189.745C122.807 186.765 126.461 182.477 129.065 176.925L127.255 176.075ZM117.026 188.055C112.665 190.812 107.687 192.2 102.06 192.2V194.2C108.033 194.2 113.388 192.721 118.095 189.745L117.026 188.055ZM102.06 180.5C106.675 180.5 110.318 178.487 112.897 174.548L111.223 173.452C109.002 176.846 105.979 178.5 102.06 178.5V180.5ZM112.89 174.558C115.523 170.645 116.76 164.736 116.76 157H114.76C114.76 164.597 113.531 170.022 111.23 173.442L112.89 174.558ZM116.76 157C116.76 149.264 115.523 143.355 112.89 139.442L111.23 140.558C113.531 143.978 114.76 149.403 114.76 157H116.76ZM112.897 139.452C110.318 135.513 106.675 133.5 102.06 133.5V135.5C105.979 135.5 109.002 137.154 111.223 140.548L112.897 139.452ZM102.06 133.5C97.5071 133.5 93.8713 135.516 91.2304 139.442L92.8899 140.558C95.1823 137.151 98.2132 135.5 102.06 135.5V133.5ZM91.2235 139.452C88.6636 143.363 87.4602 149.267 87.4602 157H89.4602C89.4602 149.4 90.6567 143.97 92.8969 140.548L91.2235 139.452ZM87.4602 157C87.4602 164.733 88.6636 170.637 91.2235 174.548L92.8969 173.452C90.6567 170.03 89.4602 164.6 89.4602 157H87.4602ZM91.2304 174.558C93.8713 178.484 97.5071 180.5 102.06 180.5V178.5C98.2132 178.5 95.1823 176.849 92.8899 173.442L91.2304 174.558ZM159.431 188.9L159.966 188.055L159.431 188.9ZM148.731 176.5L147.824 176.92L147.827 176.927L147.83 176.934L148.731 176.5ZM148.731 137.6L147.828 137.17L147.826 137.175L148.731 137.6ZM159.431 125.1L159.966 125.945L159.431 125.1ZM190.431 125.1L189.897 125.945L190.431 125.1ZM201.031 137.6L200.124 138.02L200.127 138.027L200.13 138.034L201.031 137.6ZM201.031 176.5L200.128 176.07L200.126 176.075L201.031 176.5ZM190.431 188.9L189.897 188.055L190.431 188.9ZM184.931 174L184.101 173.442L184.095 173.452L184.931 174ZM184.931 140L184.094 140.548L184.102 140.558L184.931 140ZM164.931 140L164.101 139.442L164.095 139.452L164.931 140ZM164.931 174L164.094 174.548L164.102 174.558L164.931 174ZM174.931 192.2C169.304 192.2 164.326 190.812 159.966 188.055L158.897 189.745C163.603 192.721 168.958 194.2 174.931 194.2V192.2ZM159.966 188.055C155.609 185.3 152.161 181.318 149.632 176.066L147.83 176.934C150.502 182.482 154.187 186.767 158.897 189.745L159.966 188.055ZM149.639 176.08C147.18 170.773 145.931 164.423 145.931 157H143.931C143.931 164.643 145.216 171.293 147.824 176.92L149.639 176.08ZM145.931 157C145.931 149.576 147.18 143.262 149.637 138.025L147.826 137.175C145.216 142.738 143.931 149.357 143.931 157H145.931ZM149.634 138.03C152.164 132.711 155.612 128.698 159.966 125.945L158.897 124.255C154.184 127.235 150.499 131.556 147.828 137.17L149.634 138.03ZM159.966 125.945C164.326 123.188 169.304 121.8 174.931 121.8V119.8C168.958 119.8 163.603 121.279 158.897 124.255L159.966 125.945ZM174.931 121.8C180.558 121.8 185.536 123.188 189.897 125.945L190.966 124.255C186.259 121.279 180.904 119.8 174.931 119.8V121.8ZM189.897 125.945C194.248 128.697 197.661 132.706 200.124 138.02L201.939 137.18C199.335 131.561 195.681 127.237 190.966 124.255L189.897 125.945ZM200.13 138.034C202.651 143.268 203.931 149.579 203.931 157H205.931C205.931 149.354 204.612 142.732 201.932 137.166L200.13 138.034ZM203.931 157C203.931 164.42 202.651 170.767 200.128 176.07L201.934 176.93C204.612 171.3 205.931 164.647 205.931 157H203.931ZM200.126 176.075C197.664 181.323 194.251 185.301 189.897 188.055L190.966 189.745C195.678 186.765 199.332 182.477 201.937 176.925L200.126 176.075ZM189.897 188.055C185.536 190.812 180.558 192.2 174.931 192.2V194.2C180.904 194.2 186.259 192.721 190.966 189.745L189.897 188.055ZM174.931 180.5C179.546 180.5 183.189 178.487 185.768 174.548L184.095 173.452C181.873 176.846 178.85 178.5 174.931 178.5V180.5ZM185.761 174.558C188.394 170.645 189.631 164.736 189.631 157H187.631C187.631 164.597 186.402 170.022 184.102 173.442L185.761 174.558ZM189.631 157C189.631 149.264 188.394 143.355 185.761 139.442L184.102 140.558C186.402 143.978 187.631 149.403 187.631 157H189.631ZM185.768 139.452C183.189 135.513 179.546 133.5 174.931 133.5V135.5C178.85 135.5 181.873 137.154 184.095 140.548L185.768 139.452ZM174.931 133.5C170.378 133.5 166.742 135.516 164.102 139.442L165.761 140.558C168.053 137.151 171.084 135.5 174.931 135.5V133.5ZM164.095 139.452C161.535 143.363 160.331 149.267 160.331 157H162.331C162.331 149.4 163.528 143.97 165.768 140.548L164.095 139.452ZM160.331 157C160.331 164.733 161.535 170.637 164.095 174.548L165.768 173.452C163.528 170.03 162.331 164.6 162.331 157H160.331ZM164.102 174.558C166.742 178.484 170.378 180.5 174.931 180.5V178.5C171.084 178.5 168.053 176.849 165.761 173.442L164.102 174.558ZM232.302 188.9L232.837 188.055L232.302 188.9ZM221.602 176.5L220.695 176.92L220.698 176.927L220.701 176.934L221.602 176.5ZM221.602 137.6L220.699 137.17L220.697 137.175L221.602 137.6ZM232.302 125.1L232.837 125.945L232.302 125.1ZM263.302 125.1L262.768 125.945L263.302 125.1ZM273.902 137.6L272.995 138.02L272.998 138.027L273.001 138.034L273.902 137.6ZM273.902 176.5L272.999 176.07L272.997 176.075L273.902 176.5ZM263.302 188.9L262.768 188.055L263.302 188.9ZM257.802 174L256.973 173.442L256.966 173.452L257.802 174ZM257.802 140L256.966 140.548L256.973 140.558L257.802 140ZM237.802 140L236.973 139.442L236.966 139.452L237.802 140ZM237.802 174L236.966 174.548L236.973 174.558L237.802 174ZM247.802 192.2C242.176 192.2 237.197 190.812 232.837 188.055L231.768 189.745C236.474 192.721 241.829 194.2 247.802 194.2V192.2ZM232.837 188.055C228.48 185.3 225.032 181.318 222.503 176.066L220.701 176.934C223.373 182.482 227.058 186.767 231.768 189.745L232.837 188.055ZM222.51 176.08C220.051 170.773 218.802 164.423 218.802 157H216.802C216.802 164.643 218.087 171.293 220.695 176.92L222.51 176.08ZM218.802 157C218.802 149.576 220.051 143.262 222.508 138.025L220.697 137.175C218.087 142.738 216.802 149.357 216.802 157H218.802ZM222.505 138.03C225.035 132.711 228.483 128.698 232.837 125.945L231.768 124.255C227.055 127.235 223.37 131.556 220.699 137.17L222.505 138.03ZM232.837 125.945C237.197 123.188 242.176 121.8 247.802 121.8V119.8C241.829 119.8 236.474 121.279 231.768 124.255L232.837 125.945ZM247.802 121.8C253.429 121.8 258.408 123.188 262.768 125.945L263.837 124.255C259.131 121.279 253.776 119.8 247.802 119.8V121.8ZM262.768 125.945C267.119 128.697 270.532 132.706 272.995 138.02L274.81 137.18C272.206 131.561 268.552 127.237 263.837 124.255L262.768 125.945ZM273.001 138.034C275.522 143.268 276.802 149.579 276.802 157H278.802C278.802 149.354 277.483 142.732 274.803 137.166L273.001 138.034ZM276.802 157C276.802 164.42 275.522 170.767 272.999 176.07L274.805 176.93C277.483 171.3 278.802 164.647 278.802 157H276.802ZM272.997 176.075C270.535 181.323 267.122 185.301 262.768 188.055L263.837 189.745C268.549 186.765 272.203 182.477 274.808 176.925L272.997 176.075ZM262.768 188.055C258.408 190.812 253.429 192.2 247.802 192.2V194.2C253.776 194.2 259.131 192.721 263.837 189.745L262.768 188.055ZM247.802 180.5C252.417 180.5 256.06 178.487 258.639 174.548L256.966 173.452C254.744 176.846 251.721 178.5 247.802 178.5V180.5ZM258.632 174.558C261.265 170.645 262.502 164.736 262.502 157H260.502C260.502 164.597 259.273 170.022 256.973 173.442L258.632 174.558ZM262.502 157C262.502 149.264 261.265 143.355 258.632 139.442L256.973 140.558C259.273 143.978 260.502 149.403 260.502 157H262.502ZM258.639 139.452C256.06 135.513 252.417 133.5 247.802 133.5V135.5C251.721 135.5 254.744 137.154 256.966 140.548L258.639 139.452ZM247.802 133.5C243.249 133.5 239.614 135.516 236.973 139.442L238.632 140.558C240.924 137.151 243.955 135.5 247.802 135.5V133.5ZM236.966 139.452C234.406 143.363 233.202 149.267 233.202 157H235.202C235.202 149.4 236.399 143.97 238.639 140.548L236.966 139.452ZM233.202 157C233.202 164.733 234.406 170.637 236.966 174.548L238.639 173.452C236.399 170.03 235.202 164.6 235.202 157H233.202ZM236.973 174.558C239.614 178.484 243.249 180.5 247.802 180.5V178.5C243.955 178.5 240.924 176.849 238.632 173.442L236.973 174.558Z" fill="#FF7A00"/>
<circle cx="160" cy="160" r="158.5" stroke="#FF7A00" stroke-width="3"/>
</svg>
