<svg width="320" height="320" viewBox="0 0 320 320" fill="none" xmlns="http://www.w3.org/2000/svg">
<path d="M57.558 232.532V242H56.28V233.666H51.744L51.618 236.006C51.522 237.974 51.294 239.486 50.934 240.542C50.574 241.598 49.932 242.126 49.008 242.126C48.756 242.126 48.45 242.078 48.09 241.982L48.18 240.884C48.396 240.932 48.546 240.956 48.63 240.956C49.122 240.956 49.494 240.728 49.746 240.272C49.998 239.816 50.166 239.252 50.25 238.58C50.334 237.908 50.406 237.02 50.466 235.916L50.628 232.532H57.558ZM70.371 237.662H62.451C62.523 238.646 62.901 239.444 63.585 240.056C64.269 240.656 65.133 240.956 66.177 240.956C66.765 240.956 67.305 240.854 67.797 240.65C68.289 240.434 68.715 240.122 69.075 239.714L69.795 240.542C69.375 241.046 68.847 241.43 68.211 241.694C67.587 241.958 66.897 242.09 66.141 242.09C65.169 242.09 64.305 241.886 63.549 241.478C62.805 241.058 62.223 240.482 61.803 239.75C61.383 239.018 61.173 238.19 61.173 237.266C61.173 236.342 61.371 235.514 61.767 234.782C62.175 234.05 62.727 233.48 63.423 233.072C64.131 232.664 64.923 232.46 65.799 232.46C66.675 232.46 67.461 232.664 68.157 233.072C68.853 233.48 69.399 234.05 69.795 234.782C70.191 235.502 70.389 236.33 70.389 237.266L70.371 237.662ZM65.799 233.558C64.887 233.558 64.119 233.852 63.495 234.44C62.883 235.016 62.535 235.772 62.451 236.708H69.165C69.081 235.772 68.727 235.016 68.103 234.44C67.491 233.852 66.723 233.558 65.799 233.558ZM80.3561 233.666H76.7741V242H75.4961V233.666H71.9141V232.532H80.3561V233.666ZM96.7609 232.532L92.0269 243.134C91.6429 244.022 91.1989 244.652 90.6949 245.024C90.1909 245.396 89.5849 245.582 88.8769 245.582C88.4209 245.582 87.9949 245.51 87.5989 245.366C87.2029 245.222 86.8609 245.006 86.5729 244.718L87.1669 243.764C87.6469 244.244 88.2229 244.484 88.8949 244.484C89.3269 244.484 89.6929 244.364 89.9929 244.124C90.3049 243.884 90.5929 243.476 90.8569 242.9L91.2709 241.982L87.0409 232.532H88.3729L91.9369 240.578L95.5009 232.532H96.7609ZM103.348 242.09C102.412 242.09 101.572 241.886 100.828 241.478C100.096 241.07 99.5203 240.5 99.1003 239.768C98.6803 239.024 98.4703 238.19 98.4703 237.266C98.4703 236.342 98.6803 235.514 99.1003 234.782C99.5203 234.05 100.096 233.48 100.828 233.072C101.572 232.664 102.412 232.46 103.348 232.46C104.164 232.46 104.89 232.622 105.526 232.946C106.174 233.258 106.684 233.72 107.056 234.332L106.102 234.98C105.79 234.512 105.394 234.164 104.914 233.936C104.434 233.696 103.912 233.576 103.348 233.576C102.664 233.576 102.046 233.732 101.494 234.044C100.954 234.344 100.528 234.776 100.216 235.34C99.9163 235.904 99.7663 236.546 99.7663 237.266C99.7663 237.998 99.9163 238.646 100.216 239.21C100.528 239.762 100.954 240.194 101.494 240.506C102.046 240.806 102.664 240.956 103.348 240.956C103.912 240.956 104.434 240.842 104.914 240.614C105.394 240.386 105.79 240.038 106.102 239.57L107.056 240.218C106.684 240.83 106.174 241.298 105.526 241.622C104.878 241.934 104.152 242.09 103.348 242.09ZM118.927 232.532V242H117.649V233.666H111.709V242H110.431V232.532H118.927ZM131.74 237.662H123.82C123.892 238.646 124.27 239.444 124.954 240.056C125.638 240.656 126.502 240.956 127.546 240.956C128.134 240.956 128.674 240.854 129.166 240.65C129.658 240.434 130.084 240.122 130.444 239.714L131.164 240.542C130.744 241.046 130.216 241.43 129.58 241.694C128.956 241.958 128.266 242.09 127.51 242.09C126.538 242.09 125.674 241.886 124.918 241.478C124.174 241.058 123.592 240.482 123.172 239.75C122.752 239.018 122.542 238.19 122.542 237.266C122.542 236.342 122.74 235.514 123.136 234.782C123.544 234.05 124.096 233.48 124.792 233.072C125.5 232.664 126.292 232.46 127.168 232.46C128.044 232.46 128.83 232.664 129.526 233.072C130.222 233.48 130.768 234.05 131.164 234.782C131.56 235.502 131.758 236.33 131.758 237.266L131.74 237.662ZM127.168 233.558C126.256 233.558 125.488 233.852 124.864 234.44C124.252 235.016 123.904 235.772 123.82 236.708H130.534C130.45 235.772 130.096 235.016 129.472 234.44C128.86 233.852 128.092 233.558 127.168 233.558ZM148.555 232.532V242H135.487V232.532H136.765V240.884H141.409V232.532H142.687V240.884H147.277V232.532H148.555ZM153.104 232.532H154.382V236.726H160.34V232.532H161.618V242H160.34V237.824H154.382V242H153.104V232.532ZM170.056 242.09C169.144 242.09 168.322 241.886 167.59 241.478C166.858 241.058 166.282 240.482 165.862 239.75C165.442 239.018 165.232 238.19 165.232 237.266C165.232 236.342 165.442 235.514 165.862 234.782C166.282 234.05 166.858 233.48 167.59 233.072C168.322 232.664 169.144 232.46 170.056 232.46C170.968 232.46 171.79 232.664 172.522 233.072C173.254 233.48 173.824 234.05 174.232 234.782C174.652 235.514 174.862 236.342 174.862 237.266C174.862 238.19 174.652 239.018 174.232 239.75C173.824 240.482 173.254 241.058 172.522 241.478C171.79 241.886 170.968 242.09 170.056 242.09ZM170.056 240.956C170.728 240.956 171.328 240.806 171.856 240.506C172.396 240.194 172.816 239.756 173.116 239.192C173.416 238.628 173.566 237.986 173.566 237.266C173.566 236.546 173.416 235.904 173.116 235.34C172.816 234.776 172.396 234.344 171.856 234.044C171.328 233.732 170.728 233.576 170.056 233.576C169.384 233.576 168.778 233.732 168.238 234.044C167.71 234.344 167.29 234.776 166.978 235.34C166.678 235.904 166.528 236.546 166.528 237.266C166.528 237.986 166.678 238.628 166.978 239.192C167.29 239.756 167.71 240.194 168.238 240.506C168.778 240.806 169.384 240.956 170.056 240.956ZM178.493 232.532H179.771V240.056L186.089 232.532H187.223V242H185.945V234.476L179.645 242H178.493V232.532ZM182.795 231.164C181.979 231.164 181.331 230.96 180.851 230.552C180.371 230.144 180.125 229.568 180.113 228.824H181.031C181.043 229.292 181.211 229.67 181.535 229.958C181.859 230.234 182.279 230.372 182.795 230.372C183.311 230.372 183.731 230.234 184.055 229.958C184.391 229.67 184.565 229.292 184.577 228.824H185.495C185.483 229.568 185.231 230.144 184.739 230.552C184.259 230.96 183.611 231.164 182.795 231.164ZM202.275 232.46C203.163 232.46 203.967 232.664 204.687 233.072C205.407 233.468 205.971 234.032 206.379 234.764C206.787 235.496 206.991 236.33 206.991 237.266C206.991 238.214 206.787 239.054 206.379 239.786C205.971 240.518 205.407 241.088 204.687 241.496C203.979 241.892 203.175 242.09 202.275 242.09C201.507 242.09 200.811 241.934 200.187 241.622C199.575 241.298 199.071 240.83 198.675 240.218V245.492H197.397V232.532H198.621V234.404C199.005 233.78 199.509 233.3 200.133 232.964C200.769 232.628 201.483 232.46 202.275 232.46ZM202.185 240.956C202.845 240.956 203.445 240.806 203.985 240.506C204.525 240.194 204.945 239.756 205.245 239.192C205.557 238.628 205.713 237.986 205.713 237.266C205.713 236.546 205.557 235.91 205.245 235.358C204.945 234.794 204.525 234.356 203.985 234.044C203.445 233.732 202.845 233.576 202.185 233.576C201.513 233.576 200.907 233.732 200.367 234.044C199.839 234.356 199.419 234.794 199.107 235.358C198.807 235.91 198.657 236.546 198.657 237.266C198.657 237.986 198.807 238.628 199.107 239.192C199.419 239.756 199.839 240.194 200.367 240.506C200.907 240.806 201.513 240.956 202.185 240.956ZM213.842 232.46C215.078 232.46 216.026 232.772 216.686 233.396C217.346 234.008 217.676 234.92 217.676 236.132V242H216.452V240.524C216.164 241.016 215.738 241.4 215.174 241.676C214.622 241.952 213.962 242.09 213.194 242.09C212.138 242.09 211.298 241.838 210.674 241.334C210.05 240.83 209.738 240.164 209.738 239.336C209.738 238.532 210.026 237.884 210.602 237.392C211.19 236.9 212.12 236.654 213.392 236.654H216.398V236.078C216.398 235.262 216.17 234.644 215.714 234.224C215.258 233.792 214.592 233.576 213.716 233.576C213.116 233.576 212.54 233.678 211.988 233.882C211.436 234.074 210.962 234.344 210.566 234.692L209.99 233.738C210.47 233.33 211.046 233.018 211.718 232.802C212.39 232.574 213.098 232.46 213.842 232.46ZM213.392 241.082C214.112 241.082 214.73 240.92 215.246 240.596C215.762 240.26 216.146 239.78 216.398 239.156V237.608H213.428C211.808 237.608 210.998 238.172 210.998 239.3C210.998 239.852 211.208 240.29 211.628 240.614C212.048 240.926 212.636 241.082 213.392 241.082ZM226.568 232.766C227.444 232.766 228.224 232.964 228.908 233.36C229.604 233.744 230.144 234.29 230.528 234.998C230.912 235.694 231.104 236.492 231.104 237.392C231.104 238.316 230.9 239.138 230.492 239.858C230.096 240.566 229.538 241.118 228.818 241.514C228.098 241.91 227.27 242.108 226.334 242.108C224.762 242.108 223.544 241.556 222.68 240.452C221.816 239.348 221.384 237.824 221.384 235.88C221.384 233.852 221.768 232.298 222.536 231.218C223.316 230.138 224.528 229.406 226.172 229.022L230.42 228.05L230.636 229.22L226.64 230.138C225.284 230.438 224.288 230.972 223.652 231.74C223.016 232.496 222.668 233.618 222.608 235.106C222.992 234.374 223.526 233.804 224.21 233.396C224.894 232.976 225.68 232.766 226.568 232.766ZM226.37 241.046C227.03 241.046 227.618 240.896 228.134 240.596C228.662 240.284 229.07 239.852 229.358 239.3C229.658 238.748 229.808 238.124 229.808 237.428C229.808 236.732 229.664 236.12 229.376 235.592C229.088 235.064 228.68 234.656 228.152 234.368C227.636 234.068 227.042 233.918 226.37 233.918C225.698 233.918 225.098 234.068 224.57 234.368C224.054 234.656 223.646 235.064 223.346 235.592C223.058 236.12 222.914 236.732 222.914 237.428C222.914 238.124 223.058 238.748 223.346 239.3C223.646 239.852 224.06 240.284 224.588 240.596C225.116 240.896 225.71 241.046 226.37 241.046ZM238.649 242.09C237.737 242.09 236.915 241.886 236.183 241.478C235.451 241.058 234.875 240.482 234.455 239.75C234.035 239.018 233.825 238.19 233.825 237.266C233.825 236.342 234.035 235.514 234.455 234.782C234.875 234.05 235.451 233.48 236.183 233.072C236.915 232.664 237.737 232.46 238.649 232.46C239.561 232.46 240.383 232.664 241.115 233.072C241.847 233.48 242.417 234.05 242.825 234.782C243.245 235.514 243.455 236.342 243.455 237.266C243.455 238.19 243.245 239.018 242.825 239.75C242.417 240.482 241.847 241.058 241.115 241.478C240.383 241.886 239.561 242.09 238.649 242.09ZM238.649 240.956C239.321 240.956 239.921 240.806 240.449 240.506C240.989 240.194 241.409 239.756 241.709 239.192C242.009 238.628 242.159 237.986 242.159 237.266C242.159 236.546 242.009 235.904 241.709 235.34C241.409 234.776 240.989 234.344 240.449 234.044C239.921 233.732 239.321 233.576 238.649 233.576C237.977 233.576 237.371 233.732 236.831 234.044C236.303 234.344 235.883 234.776 235.571 235.34C235.271 235.904 235.121 236.546 235.121 237.266C235.121 237.986 235.271 238.628 235.571 239.192C235.883 239.756 236.303 240.194 236.831 240.506C237.371 240.806 237.977 240.956 238.649 240.956ZM253.395 233.666H249.813V242H248.535V233.666H244.953V232.532H253.395V233.666ZM260.121 235.88C261.309 235.892 262.215 236.156 262.839 236.672C263.463 237.188 263.775 237.932 263.775 238.904C263.775 239.912 263.439 240.686 262.767 241.226C262.095 241.766 261.135 242.03 259.887 242.018L256.143 242V232.532H257.421V235.844L260.121 235.88ZM265.359 232.532H266.637V242H265.359V232.532ZM259.815 241.046C260.691 241.058 261.351 240.884 261.795 240.524C262.251 240.152 262.479 239.612 262.479 238.904C262.479 238.208 262.257 237.692 261.813 237.356C261.369 237.02 260.703 236.846 259.815 236.834L257.421 236.798V241.01L259.815 241.046Z" fill="white"/>
<path d="M134.408 59.766C135.284 59.766 136.064 59.964 136.748 60.36C137.444 60.744 137.984 61.29 138.368 61.998C138.752 62.694 138.944 63.492 138.944 64.392C138.944 65.316 138.74 66.138 138.332 66.858C137.936 67.566 137.378 68.118 136.658 68.514C135.938 68.91 135.11 69.108 134.174 69.108C132.602 69.108 131.384 68.556 130.52 67.452C129.656 66.348 129.224 64.824 129.224 62.88C129.224 60.852 129.608 59.298 130.376 58.218C131.156 57.138 132.368 56.406 134.012 56.022L138.26 55.05L138.476 56.22L134.48 57.138C133.124 57.438 132.128 57.972 131.492 58.74C130.856 59.496 130.508 60.618 130.448 62.106C130.832 61.374 131.366 60.804 132.05 60.396C132.734 59.976 133.52 59.766 134.408 59.766ZM134.21 68.046C134.87 68.046 135.458 67.896 135.974 67.596C136.502 67.284 136.91 66.852 137.198 66.3C137.498 65.748 137.648 65.124 137.648 64.428C137.648 63.732 137.504 63.12 137.216 62.592C136.928 62.064 136.52 61.656 135.992 61.368C135.476 61.068 134.882 60.918 134.21 60.918C133.538 60.918 132.938 61.068 132.41 61.368C131.894 61.656 131.486 62.064 131.186 62.592C130.898 63.12 130.754 63.732 130.754 64.428C130.754 65.124 130.898 65.748 131.186 66.3C131.486 66.852 131.9 67.284 132.428 67.596C132.956 67.896 133.55 68.046 134.21 68.046ZM146.489 69.09C145.577 69.09 144.755 68.886 144.023 68.478C143.291 68.058 142.715 67.482 142.295 66.75C141.875 66.018 141.665 65.19 141.665 64.266C141.665 63.342 141.875 62.514 142.295 61.782C142.715 61.05 143.291 60.48 144.023 60.072C144.755 59.664 145.577 59.46 146.489 59.46C147.401 59.46 148.223 59.664 148.955 60.072C149.687 60.48 150.257 61.05 150.665 61.782C151.085 62.514 151.295 63.342 151.295 64.266C151.295 65.19 151.085 66.018 150.665 66.75C150.257 67.482 149.687 68.058 148.955 68.478C148.223 68.886 147.401 69.09 146.489 69.09ZM146.489 67.956C147.161 67.956 147.761 67.806 148.289 67.506C148.829 67.194 149.249 66.756 149.549 66.192C149.849 65.628 149.999 64.986 149.999 64.266C149.999 63.546 149.849 62.904 149.549 62.34C149.249 61.776 148.829 61.344 148.289 61.044C147.761 60.732 147.161 60.576 146.489 60.576C145.817 60.576 145.211 60.732 144.671 61.044C144.143 61.344 143.723 61.776 143.411 62.34C143.111 62.904 142.961 63.546 142.961 64.266C142.961 64.986 143.111 65.628 143.411 66.192C143.723 66.756 144.143 67.194 144.671 67.506C145.211 67.806 145.817 67.956 146.489 67.956ZM162.614 59.532V69H161.336V60.666H156.8L156.674 63.006C156.578 64.974 156.35 66.486 155.99 67.542C155.63 68.598 154.988 69.126 154.064 69.126C153.812 69.126 153.506 69.078 153.146 68.982L153.236 67.884C153.452 67.932 153.602 67.956 153.686 67.956C154.178 67.956 154.55 67.728 154.802 67.272C155.054 66.816 155.222 66.252 155.306 65.58C155.39 64.908 155.462 64.02 155.522 62.916L155.684 59.532H162.614ZM175.427 64.662H167.507C167.579 65.646 167.957 66.444 168.641 67.056C169.325 67.656 170.189 67.956 171.233 67.956C171.821 67.956 172.361 67.854 172.853 67.65C173.345 67.434 173.771 67.122 174.131 66.714L174.851 67.542C174.431 68.046 173.903 68.43 173.267 68.694C172.643 68.958 171.953 69.09 171.197 69.09C170.225 69.09 169.361 68.886 168.605 68.478C167.861 68.058 167.279 67.482 166.859 66.75C166.439 66.018 166.229 65.19 166.229 64.266C166.229 63.342 166.427 62.514 166.823 61.782C167.231 61.05 167.783 60.48 168.479 60.072C169.187 59.664 169.979 59.46 170.855 59.46C171.731 59.46 172.517 59.664 173.213 60.072C173.909 60.48 174.455 61.05 174.851 61.782C175.247 62.502 175.445 63.33 175.445 64.266L175.427 64.662ZM170.855 60.558C169.943 60.558 169.175 60.852 168.551 61.44C167.939 62.016 167.591 62.772 167.507 63.708H174.221C174.137 62.772 173.783 62.016 173.159 61.44C172.547 60.852 171.779 60.558 170.855 60.558ZM187.454 64.662H179.534C179.606 65.646 179.984 66.444 180.668 67.056C181.352 67.656 182.216 67.956 183.26 67.956C183.848 67.956 184.388 67.854 184.88 67.65C185.372 67.434 185.798 67.122 186.158 66.714L186.878 67.542C186.458 68.046 185.93 68.43 185.294 68.694C184.67 68.958 183.98 69.09 183.224 69.09C182.252 69.09 181.388 68.886 180.632 68.478C179.888 68.058 179.306 67.482 178.886 66.75C178.466 66.018 178.256 65.19 178.256 64.266C178.256 63.342 178.454 62.514 178.85 61.782C179.258 61.05 179.81 60.48 180.506 60.072C181.214 59.664 182.006 59.46 182.882 59.46C183.758 59.46 184.544 59.664 185.24 60.072C185.936 60.48 186.482 61.05 186.878 61.782C187.274 62.502 187.472 63.33 187.472 64.266L187.454 64.662ZM182.882 60.558C181.97 60.558 181.202 60.852 180.578 61.44C179.966 62.016 179.618 62.772 179.534 63.708H186.248C186.164 62.772 185.81 62.016 185.186 61.44C184.574 60.852 183.806 60.558 182.882 60.558Z" fill="white"/>
<path d="M135.9 123V193H119.7V136H105.7V123H135.9ZM177.06 149.3C186.927 149.3 194.193 151.267 198.86 155.2C203.593 159.133 205.96 164.4 205.96 171C205.96 175.267 204.893 179.167 202.76 182.7C200.627 186.167 197.36 188.967 192.96 191.1C188.627 193.167 183.26 194.2 176.86 194.2C171.927 194.2 167.06 193.567 162.26 192.3C157.527 190.967 153.493 189.1 150.16 186.7L156.56 174.3C159.227 176.3 162.293 177.867 165.76 179C169.227 180.067 172.793 180.6 176.46 180.6C180.527 180.6 183.727 179.8 186.06 178.2C188.393 176.6 189.56 174.367 189.56 171.5C189.56 168.5 188.327 166.233 185.86 164.7C183.46 163.167 179.26 162.4 173.26 162.4H155.36L158.96 123H201.66V136H172.46L171.36 149.3H177.06Z" fill="#FF7A00"/>
<circle cx="160" cy="160" r="158.5" stroke="#FF7A00" stroke-width="3"/>
</svg>
