<svg width="22" height="20" viewBox="0 0 22 20" fill="none" xmlns="http://www.w3.org/2000/svg">
<path d="M21.7648 8.78182L11.5356 0.189532C11.2377 -0.0631773 10.7624 -0.0631773 10.4644 0.189532L0.235618 8.78148C0.0850308 8.90792 0 9.08217 0 9.26426C0 9.63485 0.345329 9.93524 0.771254 9.93524H2.13059V19.329C2.13059 19.6996 2.47587 20 2.90184 20H8.30062C8.72659 20 9.07188 19.6996 9.07188 19.329V13.9611H12.9281V19.329C12.9281 19.6996 13.2734 20 13.6994 20H19.0982C19.5242 20 19.8694 19.6996 19.8694 19.329V9.93524H21.2288C21.4379 9.93524 21.638 9.86139 21.7833 9.73059C22.0793 9.46412 22.071 9.03935 21.7648 8.78182ZM19.8694 9.26426C19.4435 9.26426 19.0982 9.56465 19.0982 9.93524V19.329H13.6994V13.9611C13.6994 13.5906 13.3541 13.2902 12.9281 13.2902H9.07188C8.6459 13.2902 8.30062 13.5906 8.30062 13.9611V19.329H2.90184V9.93524C2.90184 9.56465 2.55656 9.26426 2.13059 9.26426H0.771254L11 0.672305L21.2326 9.26426H19.8694Z" fill="white"/>
</svg>
