<svg width="22" height="34" viewBox="0 0 22 34" fill="none" xmlns="http://www.w3.org/2000/svg">
<path d="M19.3346 14.5809C20.7054 12.6803 22 10.8851 22 9.06667C22 6.66204 20.8411 4.3559 18.7782 2.65557C16.7153 0.955235 13.9174 0 11 0C8.08262 0 5.28472 0.955235 3.22182 2.65557C1.15892 4.3559 0 6.66204 0 9.06667C0 10.8851 1.29456 12.6803 2.66544 14.5809C3.89744 16.29 5.17069 18.0557 5.5 19.8741V21.5333H4.8125C4.63016 21.5333 4.45529 21.593 4.32636 21.6993C4.19743 21.8056 4.125 21.9497 4.125 22.1V23.8C4.12493 23.9287 4.17803 24.0536 4.27556 24.1542L6.13594 26.0712C5.74182 26.0774 5.35824 26.1772 5.03115 26.3585C4.70406 26.5399 4.44733 26.7951 4.29171 27.0936C4.13609 27.3921 4.08818 27.7213 4.15373 28.0416C4.21927 28.362 4.39548 28.66 4.66125 28.9C4.41077 29.1259 4.23955 29.4037 4.16593 29.7036C4.09231 30.0035 4.11905 30.3143 4.2433 30.6027C4.36755 30.8911 4.58462 31.1461 4.87127 31.3406C5.15792 31.5351 5.50334 31.6616 5.87056 31.7067L8.45144 33.834C8.58034 33.9402 8.75518 34 8.9375 34H13.0625C13.2448 34 13.4197 33.9402 13.5486 33.834L16.1294 31.7067C16.4967 31.6616 16.8421 31.5351 17.1287 31.3406C17.4154 31.1461 17.6325 30.8911 17.7567 30.6027C17.881 30.3143 17.9077 30.0035 17.8341 29.7036C17.7604 29.4037 17.5892 29.1259 17.3388 28.9C17.6045 28.66 17.7807 28.362 17.8463 28.0416C17.9118 27.7213 17.8639 27.3921 17.7083 27.0936C17.5527 26.7951 17.2959 26.5399 16.9688 26.3585C16.6418 26.1772 16.2582 26.0774 15.8641 26.0712L17.7244 24.1542C17.822 24.0536 17.8751 23.9287 17.875 23.8V22.1C17.875 21.9497 17.8026 21.8056 17.6736 21.6993C17.5447 21.593 17.3698 21.5333 17.1875 21.5333H16.5V19.8741C16.8293 18.0557 18.1026 16.29 19.3346 14.5809ZM12.7779 32.8667H9.22212L7.84712 31.7333H14.1529L12.7779 32.8667ZM15.8125 30.6H6.1875C6.00516 30.6 5.83029 30.5403 5.70136 30.434C5.57243 30.3278 5.5 30.1836 5.5 30.0333C5.5 29.883 5.57243 29.7389 5.70136 29.6326C5.83029 29.5264 6.00516 29.4667 6.1875 29.4667H15.8125C15.9948 29.4667 16.1697 29.5264 16.2986 29.6326C16.4276 29.7389 16.5 29.883 16.5 30.0333C16.5 30.1836 16.4276 30.3278 16.2986 30.434C16.1697 30.5403 15.9948 30.6 15.8125 30.6ZM16.5 27.7667C16.5 27.917 16.4276 28.0611 16.2986 28.1674C16.1697 28.2736 15.9948 28.3333 15.8125 28.3333H6.1875C6.00516 28.3333 5.83029 28.2736 5.70136 28.1674C5.57243 28.0611 5.5 27.917 5.5 27.7667C5.5 27.6164 5.57243 27.4722 5.70136 27.366C5.83029 27.2597 6.00516 27.2 6.1875 27.2H15.8125C15.9948 27.2 16.1697 27.2597 16.2986 27.366C16.4276 27.4722 16.5 27.6164 16.5 27.7667ZM16.5 23.6011L14.1075 26.0667H7.8925L5.5 23.6011V22.6667H16.5V23.6011ZM10.197 17.8211L8.9375 16.2633V15.3H13.0625V16.2633L11.803 17.8205C11.7283 17.9133 11.6881 18.022 11.6875 18.1333V21.5333H10.3125V18.1333C10.3123 18.0214 10.2721 17.9121 10.197 17.8188V17.8211ZM15.1319 19.7551C15.1273 19.781 15.125 19.8072 15.125 19.8333V21.5333H13.0625V18.3033L14.322 16.7461C14.3967 16.6534 14.4369 16.5447 14.4375 16.4333V15.3H15.125C15.5329 15.3 15.9317 15.2003 16.2709 15.0135C16.61 14.8267 16.8744 14.5612 17.0305 14.2506C17.1866 13.9399 17.2275 13.5981 17.1479 13.2683C17.0683 12.9386 16.8719 12.6357 16.5834 12.3979C16.295 12.1602 15.9275 11.9983 15.5274 11.9327C15.1273 11.8671 14.7126 11.9007 14.3357 12.0294C13.9588 12.1581 13.6367 12.376 13.4101 12.6555C13.1835 12.9351 13.0625 13.2638 13.0625 13.6V14.1667H8.9375V13.6C8.9375 13.2638 8.81654 12.9351 8.58991 12.6555C8.36328 12.376 8.04116 12.1581 7.66428 12.0294C7.28741 11.9007 6.87271 11.8671 6.47263 11.9327C6.07254 11.9983 5.70504 12.1602 5.41659 12.3979C5.12815 12.6357 4.93171 12.9386 4.85213 13.2683C4.77255 13.5981 4.81339 13.9399 4.9695 14.2506C5.1256 14.5612 5.38996 14.8267 5.72914 15.0135C6.06831 15.2003 6.46708 15.3 6.875 15.3H7.5625V16.4333C7.56271 16.5452 7.60288 16.6546 7.678 16.7478L8.9375 18.3033V21.5333H6.875V19.8333C6.8751 19.8064 6.87281 19.7795 6.86812 19.7529C6.512 17.6964 5.15694 15.8185 3.84725 14.0018C2.57606 12.24 1.375 10.5734 1.375 9.06667C1.375 6.96262 2.38906 4.94474 4.1941 3.45695C5.99914 1.96916 8.44729 1.13333 11 1.13333C13.5527 1.13333 16.0009 1.96916 17.8059 3.45695C19.6109 4.94474 20.625 6.96262 20.625 9.06667C20.625 10.5734 19.4239 12.24 18.15 14.0018C16.8438 15.8185 15.488 17.6964 15.1319 19.7529V19.7551ZM14.4375 14.1667V13.6C14.4375 13.4879 14.4778 13.3784 14.5534 13.2852C14.6289 13.192 14.7363 13.1194 14.8619 13.0765C14.9875 13.0336 15.1258 13.0224 15.2591 13.0442C15.3925 13.0661 15.515 13.1201 15.6111 13.1993C15.7073 13.2786 15.7728 13.3795 15.7993 13.4894C15.8258 13.5994 15.8122 13.7133 15.7602 13.8169C15.7081 13.9204 15.62 14.0089 15.507 14.0712C15.3939 14.1334 15.261 14.1667 15.125 14.1667H14.4375ZM7.5625 13.6V14.1667H6.875C6.73903 14.1667 6.6061 14.1334 6.49305 14.0712C6.37999 14.0089 6.29187 13.9204 6.23983 13.8169C6.1878 13.7133 6.17418 13.5994 6.20071 13.4894C6.22724 13.3795 6.29271 13.2786 6.38886 13.1993C6.48501 13.1201 6.60751 13.0661 6.74087 13.0442C6.87424 13.0224 7.01247 13.0336 7.13809 13.0765C7.26372 13.1194 7.37109 13.192 7.44664 13.2852C7.52218 13.3784 7.5625 13.4879 7.5625 13.6Z" fill="white"/>
</svg>
