<svg width="24" height="24" viewBox="0 0 24 24" fill="none" xmlns="http://www.w3.org/2000/svg">
<path d="M23.6179 2.32513H23.2867V1.24924C23.2867 1.05117 23.1156 0.890625 22.9045 0.890625H19.9491C19.738 0.890625 19.567 1.05121 19.567 1.24924V2.32513H19.1339C18.9227 2.32513 18.7517 2.48572 18.7517 2.68374V3.83135C18.7517 4.02943 18.9228 4.18997 19.1339 4.18997H19.567V5.26586C19.567 5.46393 19.7381 5.62447 19.9491 5.62447C20.1602 5.62447 20.3313 5.46388 20.3313 5.26586V4.19001H22.5224V9.37815C22.5224 11.5534 20.6365 13.323 18.3186 13.323H15.4396V11.1713H18.4205C19.4741 11.1713 20.3313 10.3669 20.3313 9.37811V7.17851C20.3313 6.98044 20.1602 6.8199 19.9492 6.8199C19.7381 6.8199 19.567 6.98049 19.567 7.17851V9.37811C19.567 9.97138 19.0527 10.454 18.4205 10.454H15.4396V9.95193C15.4396 9.75386 15.2685 9.59332 15.0575 9.59332H13.8345C13.6234 9.59332 13.4524 9.75391 13.4524 9.95193V10.454H12.586V7.91969H12.9961C13.1629 8.47092 13.7038 8.87605 14.3439 8.87605C15.1165 8.87605 15.7452 8.28616 15.7452 7.56108C15.7452 6.836 15.1165 6.24612 14.3439 6.24612C13.7038 6.24612 13.1629 6.65124 12.9961 7.20247H11.4115C11.2447 6.65124 10.7038 6.24612 10.0637 6.24612C9.29104 6.24612 8.66238 6.836 8.66238 7.56108C8.66238 8.28616 9.29104 8.87605 10.0637 8.87605C10.7038 8.87605 11.2447 8.47092 11.4115 7.91969H11.8216V10.454H10.9554V9.95193C10.9554 9.75386 10.7843 9.59332 10.5732 9.59332H9.35026C9.13914 9.59332 8.96811 9.75391 8.96811 9.95193V10.454H5.78335C3.04386 10.454 0.815164 12.5454 0.815164 15.1162V16.7419C0.815164 16.94 0.986244 17.1005 1.19732 17.1005C1.40844 17.1005 1.57947 16.94 1.57947 16.7419V15.1162C1.57947 12.9409 3.46534 11.1713 5.7833 11.1713H8.96806V13.323H5.68139C4.62771 13.323 3.77053 14.1274 3.77053 15.1162V20.5913H1.57957V18.6547C1.57957 18.4566 1.40849 18.2961 1.19741 18.2961C0.986292 18.2961 0.815261 18.4566 0.815261 18.6547V20.5913H0.382153C0.171032 20.5913 0 20.7519 0 20.9499V22.0975C0 22.2956 0.17108 22.4561 0.382153 22.4561H0.815261V23.532C0.815261 23.7301 0.98634 23.8906 1.19741 23.8906H4.15283C4.36395 23.8906 4.53498 23.73 4.53498 23.532V22.4561H4.86618C5.0773 22.4561 5.24834 22.2955 5.24834 22.0975V20.9499C5.24834 20.7518 5.07726 20.5913 4.86618 20.5913H4.53498V15.1162C4.53498 14.5229 5.04933 14.0403 5.68149 14.0403H8.96815V14.5424C8.96815 14.7405 9.13923 14.901 9.35031 14.901H10.5732C10.7844 14.901 10.9554 14.7404 10.9554 14.5424V14.0403H13.4522V14.5424C13.4522 14.7405 13.6233 14.901 13.8344 14.901H15.0573C15.2684 14.901 15.4395 14.7404 15.4395 14.5424V14.0403H18.3185C21.0579 14.0403 23.2866 11.9489 23.2866 9.37815V4.19001H23.6178C23.829 4.19001 24 4.02943 24 3.8314V2.68379C24.0001 2.48572 23.829 2.32513 23.6179 2.32513ZM14.344 6.96339C14.6952 6.96339 14.9809 7.23152 14.9809 7.56113C14.9809 7.89074 14.6952 8.15882 14.344 8.15882C13.9927 8.15882 13.707 7.89069 13.707 7.56113C13.707 7.23156 13.9927 6.96339 14.344 6.96339ZM10.0637 8.15882C9.71242 8.15882 9.42669 7.89069 9.42669 7.56113C9.42669 7.23156 9.71242 6.96339 10.0637 6.96339C10.4149 6.96339 10.7006 7.23152 10.7006 7.56113C10.7006 7.89074 10.4149 8.15882 10.0637 8.15882ZM3.77063 23.1734H1.57957V22.4561H3.77068V23.1734H3.77063ZM4.48403 21.7389H0.764259V21.3086H4.48403V21.7389V21.7389ZM10.1911 14.1838H9.73251V10.3106H10.1911V14.1838ZM13.4522 13.3231H10.9554V11.1713H13.4522V13.3231ZM14.6752 14.1838H14.2166V10.3106H14.6752V14.1838ZM20.3313 1.6079H22.5224V2.32517H20.3313V1.6079ZM23.2357 3.47274H19.516V3.0424H23.2357V3.47274Z" fill="white"/>
</svg>
